<?xml version="1.0" encoding="UTF-8"?>
<!DOCTYPE svg PUBLIC "-//W3C//DTD SVG 1.1//EN" "http://www.w3.org/Graphics/SVG/1.1/DTD/svg11.dtd">
<!-- Creator: CorelDRAW 2019 (64-Bit) -->
<svg xmlns="http://www.w3.org/2000/svg" xml:space="preserve" width="74.0832mm" height="74.0832mm" version="1.1" style="shape-rendering:geometricPrecision; text-rendering:geometricPrecision; image-rendering:optimizeQuality; fill-rule:evenodd; clip-rule:evenodd"
viewBox="0 0 7408.32 7408.32"
 xmlns:xlink="http://www.w3.org/1999/xlink"
 xmlns:xodm="http://www.corel.com/coreldraw/odm/2003">
 <defs>
  <style type="text/css">
   <![CDATA[
    .fil1 {fill:white}
    .fil0 {fill:url(#id0)}
   ]]>
  </style>
  <linearGradient id="id0" gradientUnits="userSpaceOnUse" x1="176.39" y1="3704.16" x2="7231.93" y2="3704.16">
   <stop offset="0" style="stop-opacity:1; stop-color:#2ADEB3"/>
   <stop offset="1" style="stop-opacity:1; stop-color:#2A79EE"/>
  </linearGradient>
 </defs>
 <g id="Capa_x0020_1">
  <metadata id="CorelCorpID_0Corel-Layer"/>
  <g id="_1374037808">
   <circle class="fil0" cx="3704.16" cy="3704.16" r="3527.77"/>
   <path class="fil1" d="M5539.65 1818.9c501.91,357.01 797.74,882.17 886.9,1575.57 85.64,665.88 -68.08,1245.51 -460.71,1738.15 -392.56,492.96 -915.34,781.1 -1567.64,865 -1111.09,142.88 -1042.16,-376.95 -2203.77,-227.56 -304.96,39.25 -574.97,-29.58 -810.89,-205.74 -235.6,-176.16 -373.26,-419.93 -413.25,-730.97 -41.64,-323.74 29.68,-595.92 214.23,-816.62 799.55,-952.71 508.14,-1123.25 1051.72,-1772.95 395.22,-472.41 919.29,-750.28 1571.87,-834.22 652.3,-83.9 1229.66,52.33 1731.54,409.34zm-304.36 549.23l302.44 0c100.96,0 183.52,82.63 183.52,183.56l0 755.89c0,100.97 -82.56,183.56 -183.52,183.56l-302.44 0c-100.93,0 -183.55,-82.59 -183.55,-183.56l0 -755.89c0,-100.93 82.62,-183.56 183.55,-183.56zm-291.27 2310.57c18.31,-3.98 36.26,-8.61 53.75,-13.87 41.46,-12.44 64.95,-56.1 52.51,-97.55 -12.48,-41.45 -56.17,-64.95 -97.59,-52.47 -189.1,56.77 -454.99,16.81 -711.28,-106.98 -238.72,-115.33 -420.61,-281.71 -463.3,-423.88 -12.45,-41.45 -56.14,-65.06 -97.56,-52.51 -41.45,12.44 -64.95,56.14 -52.51,97.59 55.61,185.08 264.51,384.28 545.22,519.87 272.43,131.58 549.59,177.69 770.76,129.8zm-2070.06 944.49c-355.62,-183.05 -650.59,-488.51 -814.91,-887.33 -157.88,-383.24 -169.37,-790.23 -60.51,-1159.01 -62.64,305.28 -51.8,634.42 46.61,959.14 143.84,474.79 448.48,853.52 828.81,1087.2zm1065.52 -3255.06l302.43 0c100.97,0 183.52,82.63 183.52,183.56l0 755.89c0,100.97 -82.55,183.56 -183.52,183.56l-302.43 0c-100.94,0 -183.52,-82.59 -183.52,-183.56l0 -755.89c0,-100.93 82.58,-183.56 183.52,-183.56z"/>
  </g>
 </g>
</svg>
