<?xml version="1.0" encoding="UTF-8"?>
<!DOCTYPE svg PUBLIC "-//W3C//DTD SVG 1.1//EN" "http://www.w3.org/Graphics/SVG/1.1/DTD/svg11.dtd">
<!-- Creator: CorelDRAW 2019 (64-Bit) -->
<svg xmlns="http://www.w3.org/2000/svg" xml:space="preserve" width="124.619mm" height="66.199mm" version="1.1" style="shape-rendering:geometricPrecision; text-rendering:geometricPrecision; image-rendering:optimizeQuality; fill-rule:evenodd; clip-rule:evenodd"
viewBox="0 0 12461.9 6619.9"
 xmlns:xlink="http://www.w3.org/1999/xlink"
 xmlns:xodm="http://www.corel.com/coreldraw/odm/2003">
 <defs>
  <style type="text/css">
   <![CDATA[
    .fil0 {fill:url(#id0)}
   ]]>
  </style>
  <linearGradient id="id0" gradientUnits="userSpaceOnUse" x1="-0" y1="3309.95" x2="12461.91" y2="3309.95">
   <stop offset="0" style="stop-opacity:1; stop-color:#2ADDB3"/>
   <stop offset="1" style="stop-opacity:1; stop-color:#2A79EE"/>
  </linearGradient>
 </defs>
 <g id="Capa_x0020_1">
  <metadata id="CorelCorpID_0Corel-Layer"/>
  <path class="fil0" d="M3270.28 0.01l5921.35 0c1798.67,0 3270.28,1471.63 3270.28,3270.28l0 79.32c0,1798.65 -1471.62,3270.28 -3270.28,3270.28l-5921.35 0c-1798.66,0 -3270.28,-1471.62 -3270.28,-3270.28l0 -79.32c0,-1798.66 1471.61,-3270.28 3270.28,-3270.28zm0.01 254l5921.34 0c1658.96,0 3016.28,1357.33 3016.28,3016.28l0 79.32c0,1658.95 -1357.33,3016.28 -3016.28,3016.28l-5921.34 0c-1658.95,0 -3016.28,-1357.32 -3016.28,-3016.28l0 -79.32c0,-1658.96 1357.32,-3016.28 3016.28,-3016.28z"/>
 </g>
</svg>
