<?xml version="1.0" encoding="UTF-8"?>
<!DOCTYPE svg PUBLIC "-//W3C//DTD SVG 1.1//EN" "http://www.w3.org/Graphics/SVG/1.1/DTD/svg11.dtd">
<!-- Creator: CorelDRAW 2019 (64-Bit) -->
<svg xmlns="http://www.w3.org/2000/svg" xml:space="preserve" width="54.604mm" height="54.604mm" version="1.1" style="shape-rendering:geometricPrecision; text-rendering:geometricPrecision; image-rendering:optimizeQuality; fill-rule:evenodd; clip-rule:evenodd"
viewBox="0 0 5460.4 5460.4"
 xmlns:xlink="http://www.w3.org/1999/xlink"
 xmlns:xodm="http://www.corel.com/coreldraw/odm/2003">
 <defs>
  <style type="text/css">
   <![CDATA[
    .fil1 {fill:#FEFEFE}
    .fil0 {fill:url(#id0)}
   ]]>
  </style>
  <linearGradient id="id0" gradientUnits="userSpaceOnUse" x1="4.25" y1="2729.26" x2="5454.24" y2="2729.26">
   <stop offset="0" style="stop-opacity:1; stop-color:#2ADEB3"/>
   <stop offset="1" style="stop-opacity:1; stop-color:#2A79EE"/>
  </linearGradient>
 </defs>
 <g id="Capa_x0020_1">
  <metadata id="CorelCorpID_0Corel-Layer"/>
  <g id="_1309809104">
   <circle class="fil0" cx="2730.2" cy="2730.2" r="2725.21"/>
   <path class="fil1" d="M1545.93 1512.24l-33.68 33.68c-10.8,10.81 -10.8,28.49 0,39.29l275.03 275.03c10.8,10.8 28.48,10.8 39.29,0l33.68 -33.68c10.8,-10.8 10.8,-28.48 0,-39.29l-275.03 -275.03c-10.81,-10.8 -28.48,-10.8 -39.29,0zm1184.27 80.25c-628.34,0 -1137.71,509.37 -1137.71,1137.71 0,628.34 509.37,1137.71 1137.71,1137.71 628.34,0 1137.71,-509.37 1137.71,-1137.71 0,-628.34 -509.37,-1137.71 -1137.71,-1137.71zm-0.14 2107.25l0 -1939.08 0.14 0c535.46,0 969.54,434.08 969.54,969.54 0,535.46 -434.08,969.54 -969.54,969.54l-0.14 0zm23.96 -2668.17l-47.63 0c-15.28,0 -27.78,12.5 -27.78,27.78l0 388.95c0,15.28 12.5,27.78 27.78,27.78l47.63 0c15.28,0 27.78,-12.5 27.78,-27.78l0 -388.95c0,-15.28 -12.5,-27.78 -27.78,-27.78zm0 2952.76l-47.63 0c-15.28,0 -27.78,12.5 -27.78,27.78l0 388.95c0,15.28 12.5,27.78 27.78,27.78l47.63 0c15.28,0 27.78,-12.5 27.78,-27.78l0 -388.95c0,-15.28 -12.5,-27.78 -27.78,-27.78zm1674.82 -1230.32l0 -47.63c0,-15.28 -12.5,-27.78 -27.78,-27.78l-388.95 0c-15.28,0 -27.78,12.5 -27.78,27.78l0 47.63c0,15.28 12.5,27.78 27.78,27.78l388.95 0c15.28,0 27.78,-12.5 27.78,-27.78zm-2952.76 0l0 -47.63c0,-15.28 -12.5,-27.78 -27.78,-27.78l-388.95 0c-15.28,0 -27.78,12.5 -27.78,27.78l0 47.63c0,15.28 12.5,27.78 27.78,27.78l388.95 0c15.28,0 27.78,-12.5 27.78,-27.78zm2472.09 -1208.09l-33.68 -33.68c-10.81,-10.8 -28.49,-10.8 -39.29,0l-275.03 275.03c-10.8,10.8 -10.8,28.48 0,39.29l33.68 33.68c10.8,10.8 28.48,10.8 39.29,0l275.03 -275.03c10.8,-10.81 10.8,-28.48 0,-39.29zm-314.32 2054.24l-33.68 33.68c-10.81,10.8 -10.81,28.48 0,39.29l275.03 275.03c10.8,10.8 28.48,10.8 39.28,0l33.68 -33.68c10.81,-10.81 10.81,-28.49 0,-39.29l-275.03 -275.03c-10.8,-10.8 -28.48,-10.8 -39.28,0zm-1773.6 33.68l-33.68 -33.68c-10.8,-10.81 -28.48,-10.81 -39.29,0l-275.03 275.03c-10.8,10.8 -10.8,28.48 0,39.28l33.68 33.68c10.81,10.81 28.49,10.81 39.29,0l275.03 -275.03c10.8,-10.8 10.8,-28.48 0,-39.28z"/>
  </g>
 </g>
</svg>
