<?xml version="1.0" encoding="UTF-8"?>
<!DOCTYPE svg PUBLIC "-//W3C//DTD SVG 1.1//EN" "http://www.w3.org/Graphics/SVG/1.1/DTD/svg11.dtd">
<!-- Creator: CorelDRAW 2019 (64-Bit) -->
<svg xmlns="http://www.w3.org/2000/svg" xml:space="preserve" width="178.588mm" height="150.824mm" version="1.1" style="shape-rendering:geometricPrecision; text-rendering:geometricPrecision; image-rendering:optimizeQuality; fill-rule:evenodd; clip-rule:evenodd"
viewBox="0 0 17858.8 15082.4"
 xmlns:xlink="http://www.w3.org/1999/xlink"
 xmlns:xodm="http://www.corel.com/coreldraw/odm/2003">
 <defs>
  <style type="text/css">
   <![CDATA[
    .fil134 {fill:none}
    .fil135 {fill:white}
    .fil133 {fill:#2A79EE;fill-rule:nonzero}
    .fil131 {fill:#2A7AED;fill-rule:nonzero}
    .fil132 {fill:#2A7AEE;fill-rule:nonzero}
    .fil130 {fill:#2A7BED;fill-rule:nonzero}
    .fil129 {fill:#2A7CEC;fill-rule:nonzero}
    .fil127 {fill:#2A7DEB;fill-rule:nonzero}
    .fil128 {fill:#2A7DEC;fill-rule:nonzero}
    .fil126 {fill:#2A7EEB;fill-rule:nonzero}
    .fil124 {fill:#2A7FEA;fill-rule:nonzero}
    .fil125 {fill:#2A7FEB;fill-rule:nonzero}
    .fil123 {fill:#2A80EA;fill-rule:nonzero}
    .fil121 {fill:#2A81E9;fill-rule:nonzero}
    .fil122 {fill:#2A81EA;fill-rule:nonzero}
    .fil120 {fill:#2A82E9;fill-rule:nonzero}
    .fil119 {fill:#2A83E8;fill-rule:nonzero}
    .fil117 {fill:#2A84E7;fill-rule:nonzero}
    .fil118 {fill:#2A84E8;fill-rule:nonzero}
    .fil116 {fill:#2A85E7;fill-rule:nonzero}
    .fil114 {fill:#2A86E6;fill-rule:nonzero}
    .fil115 {fill:#2A86E7;fill-rule:nonzero}
    .fil113 {fill:#2A87E6;fill-rule:nonzero}
    .fil112 {fill:#2A88E5;fill-rule:nonzero}
    .fil111 {fill:#2A89E5;fill-rule:nonzero}
    .fil110 {fill:#2A8AE4;fill-rule:nonzero}
    .fil108 {fill:#2A8BE3;fill-rule:nonzero}
    .fil109 {fill:#2A8BE4;fill-rule:nonzero}
    .fil107 {fill:#2A8CE3;fill-rule:nonzero}
    .fil106 {fill:#2A8DE2;fill-rule:nonzero}
    .fil105 {fill:#2A8EE2;fill-rule:nonzero}
    .fil104 {fill:#2A8FE1;fill-rule:nonzero}
    .fil102 {fill:#2A90E0;fill-rule:nonzero}
    .fil103 {fill:#2A90E1;fill-rule:nonzero}
    .fil101 {fill:#2A91E0;fill-rule:nonzero}
    .fil99 {fill:#2A92DF;fill-rule:nonzero}
    .fil100 {fill:#2A92E0;fill-rule:nonzero}
    .fil98 {fill:#2A93DF;fill-rule:nonzero}
    .fil97 {fill:#2A94DE;fill-rule:nonzero}
    .fil96 {fill:#2A95DE;fill-rule:nonzero}
    .fil95 {fill:#2A96DD;fill-rule:nonzero}
    .fil93 {fill:#2A97DC;fill-rule:nonzero}
    .fil94 {fill:#2A97DD;fill-rule:nonzero}
    .fil92 {fill:#2A98DC;fill-rule:nonzero}
    .fil91 {fill:#2A99DB;fill-rule:nonzero}
    .fil90 {fill:#2A9ADB;fill-rule:nonzero}
    .fil89 {fill:#2A9BDA;fill-rule:nonzero}
    .fil87 {fill:#2A9CD9;fill-rule:nonzero}
    .fil88 {fill:#2A9CDA;fill-rule:nonzero}
    .fil86 {fill:#2A9DD9;fill-rule:nonzero}
    .fil85 {fill:#2A9ED8;fill-rule:nonzero}
    .fil84 {fill:#2A9FD8;fill-rule:nonzero}
    .fil83 {fill:#2AA0D7;fill-rule:nonzero}
    .fil81 {fill:#2AA1D6;fill-rule:nonzero}
    .fil82 {fill:#2AA1D7;fill-rule:nonzero}
    .fil80 {fill:#2AA2D6;fill-rule:nonzero}
    .fil78 {fill:#2AA3D5;fill-rule:nonzero}
    .fil79 {fill:#2AA3D6;fill-rule:nonzero}
    .fil77 {fill:#2AA4D5;fill-rule:nonzero}
    .fil75 {fill:#2AA5D4;fill-rule:nonzero}
    .fil76 {fill:#2AA5D5;fill-rule:nonzero}
    .fil74 {fill:#2AA6D4;fill-rule:nonzero}
    .fil73 {fill:#2AA7D3;fill-rule:nonzero}
    .fil71 {fill:#2AA8D2;fill-rule:nonzero}
    .fil72 {fill:#2AA8D3;fill-rule:nonzero}
    .fil70 {fill:#2AA9D2;fill-rule:nonzero}
    .fil68 {fill:#2AAAD1;fill-rule:nonzero}
    .fil69 {fill:#2AAAD2;fill-rule:nonzero}
    .fil67 {fill:#2AABD1;fill-rule:nonzero}
    .fil66 {fill:#2AACD0;fill-rule:nonzero}
    .fil64 {fill:#2AADCF;fill-rule:nonzero}
    .fil65 {fill:#2AADD0;fill-rule:nonzero}
    .fil63 {fill:#2AAECF;fill-rule:nonzero}
    .fil61 {fill:#2AAFCE;fill-rule:nonzero}
    .fil62 {fill:#2AAFCF;fill-rule:nonzero}
    .fil60 {fill:#2AB0CE;fill-rule:nonzero}
    .fil59 {fill:#2AB1CD;fill-rule:nonzero}
    .fil57 {fill:#2AB2CC;fill-rule:nonzero}
    .fil58 {fill:#2AB2CD;fill-rule:nonzero}
    .fil56 {fill:#2AB3CC;fill-rule:nonzero}
    .fil54 {fill:#2AB4CB;fill-rule:nonzero}
    .fil55 {fill:#2AB4CC;fill-rule:nonzero}
    .fil53 {fill:#2AB5CB;fill-rule:nonzero}
    .fil51 {fill:#2AB6CA;fill-rule:nonzero}
    .fil52 {fill:#2AB6CB;fill-rule:nonzero}
    .fil50 {fill:#2AB7CA;fill-rule:nonzero}
    .fil49 {fill:#2AB8C9;fill-rule:nonzero}
    .fil48 {fill:#2AB9C9;fill-rule:nonzero}
    .fil47 {fill:#2ABAC8;fill-rule:nonzero}
    .fil45 {fill:#2ABBC7;fill-rule:nonzero}
    .fil46 {fill:#2ABBC8;fill-rule:nonzero}
    .fil44 {fill:#2ABCC7;fill-rule:nonzero}
    .fil43 {fill:#2ABDC6;fill-rule:nonzero}
    .fil42 {fill:#2ABEC6;fill-rule:nonzero}
    .fil41 {fill:#2ABFC5;fill-rule:nonzero}
    .fil39 {fill:#2AC0C4;fill-rule:nonzero}
    .fil40 {fill:#2AC0C5;fill-rule:nonzero}
    .fil38 {fill:#2AC1C4;fill-rule:nonzero}
    .fil37 {fill:#2AC2C3;fill-rule:nonzero}
    .fil36 {fill:#2AC3C3;fill-rule:nonzero}
    .fil35 {fill:#2AC4C2;fill-rule:nonzero}
    .fil33 {fill:#2AC5C1;fill-rule:nonzero}
    .fil34 {fill:#2AC5C2;fill-rule:nonzero}
    .fil32 {fill:#2AC6C1;fill-rule:nonzero}
    .fil30 {fill:#2AC7C0;fill-rule:nonzero}
    .fil31 {fill:#2AC7C1;fill-rule:nonzero}
    .fil29 {fill:#2AC8C0;fill-rule:nonzero}
    .fil28 {fill:#2AC9BF;fill-rule:nonzero}
    .fil27 {fill:#2ACABF;fill-rule:nonzero}
    .fil26 {fill:#2ACBBE;fill-rule:nonzero}
    .fil24 {fill:#2ACCBD;fill-rule:nonzero}
    .fil25 {fill:#2ACCBE;fill-rule:nonzero}
    .fil23 {fill:#2ACDBD;fill-rule:nonzero}
    .fil22 {fill:#2ACEBC;fill-rule:nonzero}
    .fil21 {fill:#2ACFBC;fill-rule:nonzero}
    .fil20 {fill:#2AD0BB;fill-rule:nonzero}
    .fil18 {fill:#2AD1BA;fill-rule:nonzero}
    .fil19 {fill:#2AD1BB;fill-rule:nonzero}
    .fil17 {fill:#2AD2BA;fill-rule:nonzero}
    .fil15 {fill:#2AD3B9;fill-rule:nonzero}
    .fil16 {fill:#2AD3BA;fill-rule:nonzero}
    .fil14 {fill:#2AD4B9;fill-rule:nonzero}
    .fil13 {fill:#2AD5B8;fill-rule:nonzero}
    .fil11 {fill:#2AD6B7;fill-rule:nonzero}
    .fil12 {fill:#2AD6B8;fill-rule:nonzero}
    .fil10 {fill:#2AD7B7;fill-rule:nonzero}
    .fil8 {fill:#2AD8B6;fill-rule:nonzero}
    .fil9 {fill:#2AD8B7;fill-rule:nonzero}
    .fil7 {fill:#2AD9B6;fill-rule:nonzero}
    .fil5 {fill:#2ADAB5;fill-rule:nonzero}
    .fil6 {fill:#2ADAB6;fill-rule:nonzero}
    .fil4 {fill:#2ADBB5;fill-rule:nonzero}
    .fil3 {fill:#2ADCB4;fill-rule:nonzero}
    .fil1 {fill:#2ADDB3;fill-rule:nonzero}
    .fil2 {fill:#2ADDB4;fill-rule:nonzero}
    .fil0 {fill:#2ADEB3;fill-rule:nonzero}
    .fil136 {fill:white;fill-rule:nonzero}
   ]]>
  </style>
     <clipPath id="id0">
      <path d="M11171.23 15033.17c-3613.93,464.8 -3389.66,-1226.01 -7167.76,-740.1 -991.97,127.58 -1870.22,-96.25 -2637.47,-669.15 -766.27,-573.03 -1214.02,-1365.91 -1344.13,-2377.54 -135.42,-1052.91 96.5,-1938.2 696.75,-2656 2600.59,-3098.74 1652.8,-3653.42 3420.74,-5766.62 1285.46,-1536.47 2990.08,-2440.28 5112.62,-2713.26 2121.56,-272.86 3999.4,170.2 5631.82,1331.39 1632.42,1161.19 2594.63,2869.29 2884.69,5124.55 278.55,2165.8 -221.53,4050.98 -1498.52,5653.32 -1276.86,1603.32 -2977.19,2540.55 -5098.74,2813.41z"/>
     </clipPath>
 </defs>
 <g id="Capa_x0020_1">
  <metadata id="CorelCorpID_0Corel-Layer"/>
  <g id="_1374051408">
   <g>
    <g>
    </g>
    <g style="clip-path:url(#id0)">
     <g>
      <polygon class="fil0" points="-1236.85,1459.49 -1131.09,1445.89 788.16,16368.57 682.4,16382.17 "/>
      <polygon id="_1" class="fil0" points="-1166.34,1450.42 -1060.58,1436.82 858.66,16359.5 752.9,16373.1 "/>
      <polygon id="_2" class="fil1" points="-1095.84,1441.36 -990.07,1427.75 929.17,16350.43 823.41,16364.03 "/>
      <polygon id="_3" class="fil2" points="-1025.33,1432.29 -919.57,1418.68 999.68,16341.36 893.92,16354.97 "/>
      <polygon id="_4" class="fil3" points="-954.82,1423.22 -849.06,1409.62 1070.19,16332.3 964.43,16345.9 "/>
      <polygon id="_5" class="fil3" points="-884.31,1414.15 -778.55,1400.55 1140.7,16323.23 1034.93,16336.83 "/>
      <polygon id="_6" class="fil3" points="-813.81,1405.08 -708.04,1391.48 1211.2,16314.16 1105.44,16327.76 "/>
      <polygon id="_7" class="fil4" points="-743.3,1396.01 -637.54,1382.41 1281.71,16305.09 1175.95,16318.69 "/>
      <polygon id="_8" class="fil4" points="-672.79,1386.95 -567.03,1373.34 1352.22,16296.02 1246.46,16309.62 "/>
      <polygon id="_9" class="fil5" points="-602.28,1377.88 -496.52,1364.28 1422.73,16286.95 1316.96,16300.56 "/>
      <polygon id="_10" class="fil5" points="-531.77,1368.81 -426.01,1355.21 1493.23,16277.89 1387.47,16291.49 "/>
      <polygon id="_11" class="fil6" points="-461.27,1359.74 -355.51,1346.14 1563.74,16268.82 1457.98,16282.42 "/>
      <polygon id="_12" class="fil7" points="-390.76,1350.67 -285,1337.07 1634.25,16259.75 1528.49,16273.35 "/>
      <polygon id="_13" class="fil7" points="-320.25,1341.61 -214.49,1328 1704.76,16250.68 1598.99,16264.28 "/>
      <polygon id="_14" class="fil8" points="-249.74,1332.54 -143.98,1318.93 1775.26,16241.61 1669.5,16255.22 "/>
      <polygon id="_15" class="fil8" points="-179.24,1323.47 -73.48,1309.87 1845.77,16232.55 1740.01,16246.15 "/>
      <polygon id="_16" class="fil9" points="-108.73,1314.4 -2.97,1300.8 1916.28,16223.48 1810.52,16237.08 "/>
      <polygon id="_17" class="fil10" points="-38.22,1305.33 67.54,1291.73 1986.79,16214.41 1881.03,16228.01 "/>
      <polygon id="_18" class="fil10" points="32.29,1296.26 138.05,1282.66 2057.29,16205.34 1951.53,16218.94 "/>
      <polygon id="_19" class="fil11" points="102.79,1287.2 208.56,1273.59 2127.8,16196.27 2022.04,16209.87 "/>
      <polygon id="_20" class="fil12" points="173.3,1278.13 279.06,1264.53 2198.31,16187.2 2092.55,16200.81 "/>
      <polygon id="_21" class="fil12" points="243.81,1269.06 349.57,1255.46 2268.82,16178.14 2163.06,16191.74 "/>
      <polygon id="_22" class="fil13" points="314.32,1259.99 420.08,1246.39 2339.32,16169.07 2233.56,16182.67 "/>
      <polygon id="_23" class="fil13" points="384.82,1250.92 490.59,1237.32 2409.83,16160 2304.07,16173.6 "/>
      <polygon id="_24" class="fil14" points="455.33,1241.86 561.09,1228.25 2480.34,16150.93 2374.58,16164.53 "/>
      <polygon id="_25" class="fil14" points="525.84,1232.79 631.6,1219.18 2550.85,16141.86 2445.09,16155.47 "/>
      <polygon id="_26" class="fil14" points="596.35,1223.72 702.11,1210.12 2621.36,16132.8 2515.59,16146.4 "/>
      <polygon id="_27" class="fil15" points="666.85,1214.65 772.62,1201.05 2691.86,16123.73 2586.1,16137.33 "/>
      <polygon id="_28" class="fil15" points="737.36,1205.58 843.12,1191.98 2762.37,16114.66 2656.61,16128.26 "/>
      <polygon id="_29" class="fil16" points="807.87,1196.51 913.63,1182.91 2832.88,16105.59 2727.12,16119.19 "/>
      <polygon id="_30" class="fil17" points="878.38,1187.45 984.14,1173.84 2903.39,16096.52 2797.62,16110.12 "/>
      <polygon id="_31" class="fil17" points="948.89,1178.38 1054.65,1164.78 2973.89,16087.45 2868.13,16101.06 "/>
      <polygon id="_32" class="fil18" points="1019.39,1169.31 1125.15,1155.71 3044.4,16078.39 2938.64,16091.99 "/>
      <polygon id="_33" class="fil19" points="1089.9,1160.24 1195.66,1146.64 3114.91,16069.32 3009.15,16082.92 "/>
      <polygon id="_34" class="fil19" points="1160.41,1151.17 1266.17,1137.57 3185.42,16060.25 3079.65,16073.85 "/>
      <polygon id="_35" class="fil20" points="1230.92,1142.11 1336.68,1128.5 3255.92,16051.18 3150.16,16064.78 "/>
      <polygon id="_36" class="fil20" points="1301.42,1133.04 1407.18,1119.43 3326.43,16042.11 3220.67,16055.72 "/>
      <polygon id="_37" class="fil21" points="1371.93,1123.97 1477.69,1110.37 3396.94,16033.05 3291.18,16046.65 "/>
      <polygon id="_38" class="fil21" points="1442.44,1114.9 1548.2,1101.3 3467.45,16023.98 3361.69,16037.58 "/>
      <polygon id="_39" class="fil21" points="1512.95,1105.83 1618.71,1092.23 3537.95,16014.91 3432.19,16028.51 "/>
      <polygon id="_40" class="fil22" points="1583.45,1096.76 1689.22,1083.16 3608.46,16005.84 3502.7,16019.44 "/>
      <polygon id="_41" class="fil22" points="1653.96,1087.7 1759.72,1074.09 3678.97,15996.77 3573.21,16010.37 "/>
      <polygon id="_42" class="fil23" points="1724.47,1078.63 1830.23,1065.03 3749.48,15987.7 3643.72,16001.31 "/>
      <polygon id="_43" class="fil23" points="1794.98,1069.56 1900.74,1055.96 3819.99,15978.64 3714.22,15992.24 "/>
      <polygon id="_44" class="fil23" points="1865.48,1060.49 1971.25,1046.89 3890.49,15969.57 3784.73,15983.17 "/>
      <polygon id="_45" class="fil24" points="1935.99,1051.42 2041.75,1037.82 3961,15960.5 3855.24,15974.1 "/>
      <polygon id="_46" class="fil25" points="2006.5,1042.36 2112.26,1028.75 4031.51,15951.43 3925.75,15965.03 "/>
      <polygon id="_47" class="fil26" points="2077.01,1033.29 2182.77,1019.69 4102.02,15942.36 3996.25,15955.97 "/>
      <polygon id="_48" class="fil26" points="2147.51,1024.22 2253.28,1010.62 4172.52,15933.3 4066.76,15946.9 "/>
      <polygon id="_49" class="fil26" points="2218.02,1015.15 2323.78,1001.55 4243.03,15924.23 4137.27,15937.83 "/>
      <polygon id="_50" class="fil27" points="2288.53,1006.08 2394.29,992.48 4313.54,15915.16 4207.78,15928.76 "/>
      <polygon id="_51" class="fil27" points="2359.04,997.01 2464.8,983.41 4384.05,15906.09 4278.28,15919.69 "/>
      <polygon id="_52" class="fil28" points="2429.55,987.95 2535.31,974.34 4454.55,15897.02 4348.79,15910.63 "/>
      <polygon id="_53" class="fil28" points="2500.05,978.88 2605.81,965.28 4525.06,15887.95 4419.3,15901.56 "/>
      <polygon id="_54" class="fil28" points="2570.56,969.81 2676.32,956.21 4595.57,15878.89 4489.81,15892.49 "/>
      <polygon id="_55" class="fil29" points="2641.07,960.74 2746.83,947.14 4666.08,15869.82 4560.32,15883.42 "/>
      <polygon id="_56" class="fil29" points="2711.58,951.67 2817.34,938.07 4736.58,15860.75 4630.82,15874.35 "/>
      <polygon id="_57" class="fil30" points="2782.08,942.61 2887.85,929 4807.09,15851.68 4701.33,15865.28 "/>
      <polygon id="_58" class="fil30" points="2852.59,933.54 2958.35,919.94 4877.6,15842.61 4771.84,15856.22 "/>
      <polygon id="_59" class="fil31" points="2923.1,924.47 3028.86,910.87 4948.11,15833.55 4842.35,15847.15 "/>
      <polygon id="_60" class="fil32" points="2993.61,915.4 3099.37,901.8 5018.61,15824.48 4912.85,15838.08 "/>
      <polygon id="_61" class="fil32" points="3064.11,906.33 3169.88,892.73 5089.12,15815.41 4983.36,15829.01 "/>
      <polygon id="_62" class="fil33" points="3134.62,897.26 3240.38,883.66 5159.63,15806.34 5053.87,15819.94 "/>
      <polygon id="_63" class="fil34" points="3205.13,888.2 3310.89,874.59 5230.14,15797.27 5124.38,15810.88 "/>
      <polygon id="_64" class="fil34" points="3275.64,879.13 3381.4,865.53 5300.65,15788.2 5194.88,15801.81 "/>
      <polygon id="_65" class="fil35" points="3346.14,870.06 3451.91,856.46 5371.15,15779.14 5265.39,15792.74 "/>
      <polygon id="_66" class="fil35" points="3416.65,860.99 3522.41,847.39 5441.66,15770.07 5335.9,15783.67 "/>
      <polygon id="_67" class="fil36" points="3487.16,851.92 3592.92,838.32 5512.17,15761 5406.41,15774.6 "/>
      <polygon id="_68" class="fil36" points="3557.67,842.86 3663.43,829.25 5582.68,15751.93 5476.91,15765.53 "/>
      <polygon id="_69" class="fil36" points="3628.18,833.79 3733.94,820.19 5653.18,15742.86 5547.42,15756.47 "/>
      <polygon id="_70" class="fil37" points="3698.68,824.72 3804.44,811.12 5723.69,15733.8 5617.93,15747.4 "/>
      <polygon id="_71" class="fil37" points="3769.19,815.65 3874.95,802.05 5794.2,15724.73 5688.44,15738.33 "/>
      <polygon id="_72" class="fil38" points="3839.7,806.58 3945.46,792.98 5864.71,15715.66 5758.94,15729.26 "/>
      <polygon id="_73" class="fil38" points="3910.21,797.51 4015.97,783.91 5935.21,15706.59 5829.45,15720.19 "/>
      <polygon id="_74" class="fil38" points="3980.71,788.45 4086.47,774.84 6005.72,15697.52 5899.96,15711.13 "/>
      <polygon id="_75" class="fil39" points="4051.22,779.38 4156.98,765.78 6076.23,15688.45 5970.47,15702.06 "/>
      <polygon id="_76" class="fil40" points="4121.73,770.31 4227.49,756.71 6146.74,15679.39 6040.98,15692.99 "/>
      <polygon id="_77" class="fil40" points="4192.24,761.24 4298,747.64 6217.24,15670.32 6111.48,15683.92 "/>
      <polygon id="_78" class="fil41" points="4262.74,752.17 4368.51,738.57 6287.75,15661.25 6181.99,15674.85 "/>
      <polygon id="_79" class="fil41" points="4333.25,743.11 4439.01,729.5 6358.26,15652.18 6252.5,15665.78 "/>
      <polygon id="_80" class="fil42" points="4403.76,734.04 4509.52,720.44 6428.77,15643.11 6323.01,15656.72 "/>
      <polygon id="_81" class="fil42" points="4474.27,724.97 4580.03,711.37 6499.27,15634.05 6393.51,15647.65 "/>
      <polygon id="_82" class="fil42" points="4544.77,715.9 4650.54,702.3 6569.78,15624.98 6464.02,15638.58 "/>
      <polygon id="_83" class="fil43" points="4615.28,706.83 4721.04,693.23 6640.29,15615.91 6534.53,15629.51 "/>
      <polygon id="_84" class="fil43" points="4685.79,697.76 4791.55,684.16 6710.8,15606.84 6605.04,15620.44 "/>
      <polygon id="_85" class="fil44" points="4756.3,688.7 4862.06,675.09 6781.31,15597.77 6675.54,15611.38 "/>
      <polygon id="_86" class="fil44" points="4826.8,679.63 4932.57,666.03 6851.81,15588.7 6746.05,15602.31 "/>
      <polygon id="_87" class="fil44" points="4897.31,670.56 5003.07,656.96 6922.32,15579.64 6816.56,15593.24 "/>
      <polygon id="_88" class="fil45" points="4967.82,661.49 5073.58,647.89 6992.83,15570.57 6887.07,15584.17 "/>
      <polygon id="_89" class="fil46" points="5038.33,652.42 5144.09,638.82 7063.34,15561.5 6957.57,15575.1 "/>
      <polygon id="_90" class="fil47" points="5108.84,643.36 5214.6,629.75 7133.84,15552.43 7028.08,15566.03 "/>
      <polygon id="_91" class="fil47" points="5179.34,634.29 5285.1,620.69 7204.35,15543.36 7098.59,15556.97 "/>
      <polygon id="_92" class="fil47" points="5249.85,625.22 5355.61,611.62 7274.86,15534.3 7169.1,15547.9 "/>
      <polygon id="_93" class="fil48" points="5320.36,616.15 5426.12,602.55 7345.37,15525.23 7239.61,15538.83 "/>
      <polygon id="_94" class="fil48" points="5390.87,607.08 5496.63,593.48 7415.87,15516.16 7310.11,15529.76 "/>
      <polygon id="_95" class="fil49" points="5461.37,598.01 5567.13,584.41 7486.38,15507.09 7380.62,15520.69 "/>
      <polygon id="_96" class="fil49" points="5531.88,588.95 5637.64,575.34 7556.89,15498.02 7451.13,15511.63 "/>
      <polygon id="_97" class="fil49" points="5602.39,579.88 5708.15,566.28 7627.4,15488.95 7521.64,15502.56 "/>
      <polygon id="_98" class="fil50" points="5672.9,570.81 5778.66,557.21 7697.9,15479.89 7592.14,15493.49 "/>
      <polygon id="_99" class="fil50" points="5743.4,561.74 5849.17,548.14 7768.41,15470.82 7662.65,15484.42 "/>
      <polygon id="_100" class="fil51" points="5813.91,552.67 5919.67,539.07 7838.92,15461.75 7733.16,15475.35 "/>
      <polygon id="_101" class="fil51" points="5884.42,543.61 5990.18,530 7909.43,15452.68 7803.67,15466.28 "/>
      <polygon id="_102" class="fil52" points="5954.93,534.54 6060.69,520.94 7979.94,15443.61 7874.17,15457.22 "/>
      <polygon id="_103" class="fil53" points="6025.43,525.47 6131.2,511.87 8050.44,15434.55 7944.68,15448.15 "/>
      <polygon id="_104" class="fil53" points="6095.94,516.4 6201.7,502.8 8120.95,15425.48 8015.19,15439.08 "/>
      <polygon id="_105" class="fil54" points="6166.45,507.33 6272.21,493.73 8191.46,15416.41 8085.7,15430.01 "/>
      <polygon id="_106" class="fil55" points="6236.96,498.26 6342.72,484.66 8261.97,15407.34 8156.2,15420.94 "/>
      <polygon id="_107" class="fil55" points="6307.47,489.2 6413.23,475.59 8332.47,15398.27 8226.71,15411.88 "/>
      <polygon id="_108" class="fil56" points="6377.97,480.13 6483.73,466.53 8402.98,15389.2 8297.22,15402.81 "/>
      <polygon id="_109" class="fil56" points="6448.48,471.06 6554.24,457.46 8473.49,15380.14 8367.73,15393.74 "/>
      <polygon id="_110" class="fil57" points="6518.99,461.99 6624.75,448.39 8544,15371.07 8438.23,15384.67 "/>
      <polygon id="_111" class="fil58" points="6589.5,452.92 6695.26,439.32 8614.5,15362 8508.74,15375.6 "/>
      <polygon id="_112" class="fil58" points="6660,443.86 6765.76,430.25 8685.01,15352.93 8579.25,15366.53 "/>
      <polygon id="_113" class="fil59" points="6730.51,434.79 6836.27,421.19 8755.52,15343.86 8649.76,15357.47 "/>
      <polygon id="_114" class="fil59" points="6801.02,425.72 6906.78,412.12 8826.03,15334.8 8720.27,15348.4 "/>
      <polygon id="_115" class="fil60" points="6871.53,416.65 6977.29,403.05 8896.53,15325.73 8790.77,15339.33 "/>
      <polygon id="_116" class="fil60" points="6942.03,407.58 7047.8,393.98 8967.04,15316.66 8861.28,15330.26 "/>
      <polygon id="_117" class="fil60" points="7012.54,398.51 7118.3,384.91 9037.55,15307.59 8931.79,15321.19 "/>
      <polygon id="_118" class="fil61" points="7083.05,389.45 7188.81,375.84 9108.06,15298.52 9002.3,15312.13 "/>
      <polygon id="_119" class="fil62" points="7153.56,380.38 7259.32,366.78 9178.56,15289.45 9072.8,15303.06 "/>
      <polygon id="_120" class="fil63" points="7224.06,371.31 7329.83,357.71 9249.07,15280.39 9143.31,15293.99 "/>
      <polygon id="_121" class="fil63" points="7294.57,362.24 7400.33,348.64 9319.58,15271.32 9213.82,15284.92 "/>
      <polygon id="_122" class="fil63" points="7365.08,353.17 7470.84,339.57 9390.09,15262.25 9284.33,15275.85 "/>
      <polygon id="_123" class="fil64" points="7435.59,344.11 7541.35,330.5 9460.6,15253.18 9354.83,15266.78 "/>
      <polygon id="_124" class="fil65" points="7506.09,335.04 7611.86,321.44 9531.1,15244.11 9425.34,15257.72 "/>
      <polygon id="_125" class="fil66" points="7576.6,325.97 7682.36,312.37 9601.61,15235.05 9495.85,15248.65 "/>
      <polygon id="_126" class="fil66" points="7647.11,316.9 7752.87,303.3 9672.12,15225.98 9566.36,15239.58 "/>
      <polygon id="_127" class="fil66" points="7717.62,307.83 7823.38,294.23 9742.63,15216.91 9636.86,15230.51 "/>
      <polygon id="_128" class="fil67" points="7788.13,298.76 7893.89,285.16 9813.13,15207.84 9707.37,15221.44 "/>
      <polygon id="_129" class="fil67" points="7858.63,289.7 7964.39,276.09 9883.64,15198.77 9777.88,15212.38 "/>
      <polygon id="_130" class="fil67" points="7929.14,280.63 8034.9,267.03 9954.15,15189.7 9848.39,15203.31 "/>
      <polygon id="_131" class="fil68" points="7999.65,271.56 8105.41,257.96 10024.66,15180.64 9918.89,15194.24 "/>
      <polygon id="_132" class="fil69" points="8070.16,262.49 8175.92,248.89 10095.16,15171.57 9989.4,15185.17 "/>
      <polygon id="_133" class="fil70" points="8140.66,253.42 8246.42,239.82 10165.67,15162.5 10059.91,15176.1 "/>
      <polygon id="_134" class="fil70" points="8211.17,244.36 8316.93,230.75 10236.18,15153.43 10130.42,15167.03 "/>
      <polygon id="_135" class="fil70" points="8281.68,235.29 8387.44,221.69 10306.69,15144.36 10200.93,15157.97 "/>
      <polygon id="_136" class="fil71" points="8352.19,226.22 8457.95,212.62 10377.19,15135.3 10271.43,15148.9 "/>
      <polygon id="_137" class="fil72" points="8422.69,217.15 8528.46,203.55 10447.7,15126.23 10341.94,15139.83 "/>
      <polygon id="_138" class="fil73" points="8493.2,208.08 8598.96,194.48 10518.21,15117.16 10412.45,15130.76 "/>
      <polygon id="_139" class="fil73" points="8563.71,199.01 8669.47,185.41 10588.72,15108.09 10482.96,15121.69 "/>
      <polygon id="_140" class="fil73" points="8634.22,189.95 8739.98,176.34 10659.23,15099.02 10553.46,15112.63 "/>
      <polygon id="_141" class="fil74" points="8704.72,180.88 8810.49,167.28 10729.73,15089.95 10623.97,15103.56 "/>
      <polygon id="_142" class="fil74" points="8775.23,171.81 8880.99,158.21 10800.24,15080.89 10694.48,15094.49 "/>
      <polygon id="_143" class="fil75" points="8845.74,162.74 8951.5,149.14 10870.75,15071.82 10764.99,15085.42 "/>
      <polygon id="_144" class="fil75" points="8916.25,153.67 9022.01,140.07 10941.26,15062.75 10835.49,15076.35 "/>
      <polygon id="_145" class="fil76" points="8986.75,144.61 9092.52,131 11011.76,15053.68 10906,15067.28 "/>
      <polygon id="_146" class="fil77" points="9057.26,135.54 9163.02,121.94 11082.27,15044.61 10976.51,15058.22 "/>
      <polygon id="_147" class="fil77" points="9127.77,126.47 9233.53,112.87 11152.78,15035.55 11047.02,15049.15 "/>
      <polygon id="_148" class="fil78" points="9198.28,117.4 9304.04,103.8 11223.29,15026.48 11117.52,15040.08 "/>
      <polygon id="_149" class="fil78" points="9268.79,108.33 9374.55,94.73 11293.79,15017.41 11188.03,15031.01 "/>
      <polygon id="_150" class="fil79" points="9339.29,99.26 9445.05,85.66 11364.3,15008.34 11258.54,15021.94 "/>
      <polygon id="_151" class="fil80" points="9409.8,90.2 9515.56,76.59 11434.81,14999.27 11329.05,15012.88 "/>
      <polygon id="_152" class="fil80" points="9480.31,81.13 9586.07,67.53 11505.32,14990.2 11399.56,15003.81 "/>
      <polygon id="_153" class="fil81" points="9550.82,72.06 9656.58,58.46 11575.82,14981.14 11470.06,14994.74 "/>
      <polygon id="_154" class="fil82" points="9621.32,62.99 9727.09,49.39 11646.33,14972.07 11540.57,14985.67 "/>
      <polygon id="_155" class="fil82" points="9691.83,53.92 9797.59,40.32 11716.84,14963 11611.08,14976.6 "/>
      <polygon id="_156" class="fil83" points="9762.34,44.86 9868.1,31.25 11787.35,14953.93 11681.59,14967.53 "/>
      <polygon id="_157" class="fil83" points="9832.85,35.79 9938.61,22.19 11857.85,14944.86 11752.09,14958.47 "/>
      <polygon id="_158" class="fil84" points="9903.35,26.72 10009.12,13.12 11928.36,14935.8 11822.6,14949.4 "/>
      <polygon id="_159" class="fil84" points="9973.86,17.65 10079.62,4.05 11998.87,14926.73 11893.11,14940.33 "/>
      <polygon id="_160" class="fil84" points="10044.37,8.58 10150.13,-5.02 12069.38,14917.66 11963.62,14931.26 "/>
      <polygon id="_161" class="fil85" points="10114.88,-0.49 10220.64,-14.09 12139.89,14908.59 12034.12,14922.19 "/>
      <polygon id="_162" class="fil85" points="10185.38,-9.55 10291.15,-23.16 12210.39,14899.52 12104.63,14913.13 "/>
      <polygon id="_163" class="fil86" points="10255.89,-18.62 10361.65,-32.22 12280.9,14890.45 12175.14,14904.06 "/>
      <polygon id="_164" class="fil86" points="10326.4,-27.69 10432.16,-41.29 12351.41,14881.39 12245.65,14894.99 "/>
      <polygon id="_165" class="fil86" points="10396.91,-36.76 10502.67,-50.36 12421.92,14872.32 12316.15,14885.92 "/>
      <polygon id="_166" class="fil87" points="10467.42,-45.83 10573.18,-59.43 12492.42,14863.25 12386.66,14876.85 "/>
      <polygon id="_167" class="fil88" points="10537.92,-54.89 10643.68,-68.5 12562.93,14854.18 12457.17,14867.78 "/>
      <polygon id="_168" class="fil89" points="10608.43,-63.96 10714.19,-77.56 12633.44,14845.11 12527.68,14858.72 "/>
      <polygon id="_169" class="fil89" points="10678.94,-73.03 10784.7,-86.63 12703.95,14836.05 12598.18,14849.65 "/>
      <polygon id="_170" class="fil89" points="10749.45,-82.1 10855.21,-95.7 12774.45,14826.98 12668.69,14840.58 "/>
      <polygon id="_171" class="fil90" points="10819.95,-91.17 10925.71,-104.77 12844.96,14817.91 12739.2,14831.51 "/>
      <polygon id="_172" class="fil90" points="10890.46,-100.24 10996.22,-113.84 12915.47,14808.84 12809.71,14822.44 "/>
      <polygon id="_173" class="fil91" points="10960.97,-109.3 11066.73,-122.91 12985.98,14799.77 12880.22,14813.38 "/>
      <polygon id="_174" class="fil91" points="11031.48,-118.37 11137.24,-131.97 13056.48,14790.7 12950.72,14804.31 "/>
      <polygon id="_175" class="fil91" points="11101.98,-127.44 11207.75,-141.04 13126.99,14781.64 13021.23,14795.24 "/>
      <polygon id="_176" class="fil92" points="11172.49,-136.51 11278.25,-150.11 13197.5,14772.57 13091.74,14786.17 "/>
      <polygon id="_177" class="fil92" points="11243,-145.58 11348.76,-159.18 13268.01,14763.5 13162.25,14777.1 "/>
      <polygon id="_178" class="fil93" points="11313.51,-154.64 11419.27,-168.25 13338.51,14754.43 13232.75,14768.03 "/>
      <polygon id="_179" class="fil93" points="11384.01,-163.71 11489.78,-177.31 13409.02,14745.36 13303.26,14758.97 "/>
      <polygon id="_180" class="fil94" points="11454.52,-172.78 11560.28,-186.38 13479.53,14736.3 13373.77,14749.9 "/>
      <polygon id="_181" class="fil95" points="11525.03,-181.85 11630.79,-195.45 13550.04,14727.23 13444.28,14740.83 "/>
      <polygon id="_182" class="fil95" points="11595.54,-190.92 11701.3,-204.52 13620.55,14718.16 13514.78,14731.76 "/>
      <polygon id="_183" class="fil95" points="11666.04,-199.99 11771.81,-213.59 13691.05,14709.09 13585.29,14722.69 "/>
      <polygon id="_184" class="fil96" points="11736.55,-209.05 11842.31,-222.66 13761.56,14700.02 13655.8,14713.63 "/>
      <polygon id="_185" class="fil96" points="11807.06,-218.12 11912.82,-231.72 13832.07,14690.95 13726.31,14704.56 "/>
      <polygon id="_186" class="fil97" points="11877.57,-227.19 11983.33,-240.79 13902.58,14681.89 13796.81,14695.49 "/>
      <polygon id="_187" class="fil97" points="11948.08,-236.26 12053.84,-249.86 13973.08,14672.82 13867.32,14686.42 "/>
      <polygon id="_188" class="fil97" points="12018.58,-245.33 12124.34,-258.93 14043.59,14663.75 13937.83,14677.35 "/>
      <polygon id="_189" class="fil98" points="12089.09,-254.39 12194.85,-268 14114.1,14654.68 14008.34,14668.28 "/>
      <polygon id="_190" class="fil98" points="12159.6,-263.46 12265.36,-277.06 14184.61,14645.61 14078.85,14659.22 "/>
      <polygon id="_191" class="fil99" points="12230.11,-272.53 12335.87,-286.13 14255.11,14636.55 14149.35,14650.15 "/>
      <polygon id="_192" class="fil99" points="12300.61,-281.6 12406.37,-295.2 14325.62,14627.48 14219.86,14641.08 "/>
      <polygon id="_193" class="fil100" points="12371.12,-290.67 12476.88,-304.27 14396.13,14618.41 14290.37,14632.01 "/>
      <polygon id="_194" class="fil101" points="12441.63,-299.74 12547.39,-313.34 14466.64,14609.34 14360.88,14622.94 "/>
      <polygon id="_195" class="fil101" points="12512.14,-308.8 12617.9,-322.41 14537.14,14600.27 14431.38,14613.88 "/>
      <polygon id="_196" class="fil102" points="12582.64,-317.87 12688.41,-331.47 14607.65,14591.2 14501.89,14604.81 "/>
      <polygon id="_197" class="fil103" points="12653.15,-326.94 12758.91,-340.54 14678.16,14582.14 14572.4,14595.74 "/>
      <polygon id="_198" class="fil103" points="12723.66,-336.01 12829.42,-349.61 14748.67,14573.07 14642.91,14586.67 "/>
      <polygon id="_199" class="fil104" points="12794.17,-345.08 12899.93,-358.68 14819.18,14564 14713.41,14577.6 "/>
      <polygon id="_200" class="fil104" points="12864.67,-354.14 12970.44,-367.75 14889.68,14554.93 14783.92,14568.53 "/>
      <polygon id="_201" class="fil105" points="12935.18,-363.21 13040.94,-376.81 14960.19,14545.86 14854.43,14559.47 "/>
      <polygon id="_202" class="fil105" points="13005.69,-372.28 13111.45,-385.88 15030.7,14536.8 14924.94,14550.4 "/>
      <polygon id="_203" class="fil105" points="13076.2,-381.35 13181.96,-394.95 15101.21,14527.73 14995.44,14541.33 "/>
      <polygon id="_204" class="fil106" points="13146.71,-390.42 13252.47,-404.02 15171.71,14518.66 15065.95,14532.26 "/>
      <polygon id="_205" class="fil106" points="13217.21,-399.49 13322.97,-413.09 15242.22,14509.59 15136.46,14523.19 "/>
      <polygon id="_206" class="fil107" points="13287.72,-408.55 13393.48,-422.16 15312.73,14500.52 15206.97,14514.13 "/>
      <polygon id="_207" class="fil107" points="13358.23,-417.62 13463.99,-431.22 15383.24,14491.45 15277.47,14505.06 "/>
      <polygon id="_208" class="fil107" points="13428.74,-426.69 13534.5,-440.29 15453.74,14482.39 15347.98,14495.99 "/>
      <polygon id="_209" class="fil108" points="13499.24,-435.76 13605,-449.36 15524.25,14473.32 15418.49,14486.92 "/>
      <polygon id="_210" class="fil109" points="13569.75,-444.83 13675.51,-458.43 15594.76,14464.25 15489,14477.85 "/>
      <polygon id="_211" class="fil110" points="13640.26,-453.89 13746.02,-467.5 15665.27,14455.18 15559.51,14468.78 "/>
      <polygon id="_212" class="fil110" points="13710.77,-462.96 13816.53,-476.56 15735.77,14446.11 15630.01,14459.72 "/>
      <polygon id="_213" class="fil110" points="13781.27,-472.03 13887.04,-485.63 15806.28,14437.05 15700.52,14450.65 "/>
      <polygon id="_214" class="fil111" points="13851.78,-481.1 13957.54,-494.7 15876.79,14427.98 15771.03,14441.58 "/>
      <polygon id="_215" class="fil111" points="13922.29,-490.17 14028.05,-503.77 15947.3,14418.91 15841.54,14432.51 "/>
      <polygon id="_216" class="fil112" points="13992.8,-499.24 14098.56,-512.84 16017.8,14409.84 15912.04,14423.44 "/>
      <polygon id="_217" class="fil112" points="14063.3,-508.3 14169.07,-521.91 16088.31,14400.77 15982.55,14414.38 "/>
      <polygon id="_218" class="fil112" points="14133.81,-517.37 14239.57,-530.97 16158.82,14391.7 16053.06,14405.31 "/>
      <polygon id="_219" class="fil113" points="14204.32,-526.44 14310.08,-540.04 16229.33,14382.64 16123.57,14396.24 "/>
      <polygon id="_220" class="fil113" points="14274.83,-535.51 14380.59,-549.11 16299.84,14373.57 16194.07,14387.17 "/>
      <polygon id="_221" class="fil114" points="14345.33,-544.58 14451.1,-558.18 16370.34,14364.5 16264.58,14378.1 "/>
      <polygon id="_222" class="fil114" points="14415.84,-553.64 14521.6,-567.25 16440.85,14355.43 16335.09,14369.03 "/>
      <polygon id="_223" class="fil115" points="14486.35,-562.71 14592.11,-576.31 16511.36,14346.36 16405.6,14359.97 "/>
      <polygon id="_224" class="fil116" points="14556.86,-571.78 14662.62,-585.38 16581.87,14337.3 16476.1,14350.9 "/>
      <polygon id="_225" class="fil116" points="14627.37,-580.85 14733.13,-594.45 16652.37,14328.23 16546.61,14341.83 "/>
      <polygon id="_226" class="fil117" points="14697.87,-589.92 14803.63,-603.52 16722.88,14319.16 16617.12,14332.76 "/>
      <polygon id="_227" class="fil118" points="14768.38,-598.99 14874.14,-612.59 16793.39,14310.09 16687.63,14323.69 "/>
      <polygon id="_228" class="fil118" points="14838.89,-608.05 14944.65,-621.66 16863.9,14301.02 16758.13,14314.63 "/>
      <polygon id="_229" class="fil119" points="14909.4,-617.12 15015.16,-630.72 16934.4,14291.95 16828.64,14305.56 "/>
      <polygon id="_230" class="fil119" points="14979.9,-626.19 15085.66,-639.79 17004.91,14282.89 16899.15,14296.49 "/>
      <polygon id="_231" class="fil119" points="15050.41,-635.26 15156.17,-648.86 17075.42,14273.82 16969.66,14287.42 "/>
      <polygon id="_232" class="fil120" points="15120.92,-644.33 15226.68,-657.93 17145.93,14264.75 17040.17,14278.35 "/>
      <polygon id="_233" class="fil120" points="15191.43,-653.39 15297.19,-667 17216.43,14255.68 17110.67,14269.28 "/>
      <polygon id="_234" class="fil121" points="15261.93,-662.46 15367.7,-676.06 17286.94,14246.61 17181.18,14260.22 "/>
      <polygon id="_235" class="fil121" points="15332.44,-671.53 15438.2,-685.13 17357.45,14237.55 17251.69,14251.15 "/>
      <polygon id="_236" class="fil122" points="15402.95,-680.6 15508.71,-694.2 17427.96,14228.48 17322.2,14242.08 "/>
      <polygon id="_237" class="fil123" points="15473.46,-689.67 15579.22,-703.27 17498.47,14219.41 17392.7,14233.01 "/>
      <polygon id="_238" class="fil123" points="15543.96,-698.74 15649.73,-712.34 17568.97,14210.34 17463.21,14223.94 "/>
      <polygon id="_239" class="fil124" points="15614.47,-707.8 15720.23,-721.41 17639.48,14201.27 17533.72,14214.88 "/>
      <polygon id="_240" class="fil125" points="15684.98,-716.87 15790.74,-730.47 17709.99,14192.2 17604.23,14205.81 "/>
      <polygon id="_241" class="fil125" points="15755.49,-725.94 15861.25,-739.54 17780.5,14183.14 17674.73,14196.74 "/>
      <polygon id="_242" class="fil126" points="15825.99,-735.01 15931.76,-748.61 17851,14174.07 17745.24,14187.67 "/>
      <polygon id="_243" class="fil126" points="15896.5,-744.08 16002.26,-757.68 17921.51,14165 17815.75,14178.6 "/>
      <polygon id="_244" class="fil127" points="15967.01,-753.14 16072.77,-766.75 17992.02,14155.93 17886.26,14169.53 "/>
      <polygon id="_245" class="fil128" points="16037.52,-762.21 16143.28,-775.81 18062.53,14146.86 17956.76,14160.47 "/>
      <polygon id="_246" class="fil128" points="16108.03,-771.28 16213.79,-784.88 18133.03,14137.8 18027.27,14151.4 "/>
      <polygon id="_247" class="fil129" points="16178.53,-780.35 16284.29,-793.95 18203.54,14128.73 18097.78,14142.33 "/>
      <polygon id="_248" class="fil129" points="16249.04,-789.42 16354.8,-803.02 18274.05,14119.66 18168.29,14133.26 "/>
      <polygon id="_249" class="fil130" points="16319.55,-798.49 16425.31,-812.09 18344.56,14110.59 18238.8,14124.19 "/>
      <polygon id="_250" class="fil130" points="16390.06,-807.55 16495.82,-821.16 18415.06,14101.52 18309.3,14115.13 "/>
      <polygon id="_251" class="fil130" points="16460.56,-816.62 16566.33,-830.22 18485.57,14092.45 18379.81,14106.06 "/>
      <polygon id="_252" class="fil131" points="16531.07,-825.69 16636.83,-839.29 18556.08,14083.39 18450.32,14096.99 "/>
      <polygon id="_253" class="fil132" points="16601.58,-834.76 16707.34,-848.36 18626.59,14074.32 18520.83,14087.92 "/>
      <polygon id="_254" class="fil133" points="16672.09,-843.83 16777.85,-857.43 18697.09,14065.25 18591.33,14078.85 "/>
      <polygon id="_255" class="fil133" points="16742.59,-852.89 16848.36,-866.5 18767.6,14056.18 18661.84,14069.78 "/>
      <polygon id="_256" class="fil133" points="16813.1,-861.96 16918.86,-875.56 18838.11,14047.11 18732.35,14060.72 "/>
      <polygon id="_257" class="fil132" points="16883.61,-871.03 16813.1,-861.96 18732.35,14060.72 18802.86,14051.65 "/>
     </g>
    </g>
    <path class="fil134" d="M11171.23 15033.17c-3613.93,464.8 -3389.66,-1226.01 -7167.76,-740.1 -991.97,127.58 -1870.22,-96.25 -2637.47,-669.15 -766.27,-573.03 -1214.02,-1365.91 -1344.13,-2377.54 -135.42,-1052.91 96.5,-1938.2 696.75,-2656 2600.59,-3098.74 1652.8,-3653.42 3420.74,-5766.62 1285.46,-1536.47 2990.08,-2440.28 5112.62,-2713.26 2121.56,-272.86 3999.4,170.2 5631.82,1331.39 1632.42,1161.19 2594.63,2869.29 2884.69,5124.55 278.55,2165.8 -221.53,4050.98 -1498.52,5653.32 -1276.86,1603.32 -2977.19,2540.55 -5098.74,2813.41z"/>
   </g>
   <path class="fil135" d="M13893.85 3228.25l983.68 0c328.39,0 596.89,268.73 596.89,597.01l0 2458.56c0,328.39 -268.5,597 -596.89,597l-983.68 0c-328.28,0 -597,-268.61 -597,-597l0 -2458.56c0,-328.28 268.72,-597.01 597,-597.01z"/>
   <path class="fil135" d="M9679.19 3228.25l983.68 0c328.4,0 596.89,268.73 596.89,597.01l0 2458.56c0,328.39 -268.49,597 -596.89,597l-983.68 0c-328.28,0 -596.89,-268.61 -596.89,-597l0 -2458.56c0,-328.28 268.61,-597.01 596.89,-597.01z"/>
   <path class="fil135" d="M6213.64 13815.41c-1156.68,-595.46 -2116.14,-1588.9 -2650.56,-2886.06 -513.54,-1246.49 -550.85,-2570.3 -196.74,-3769.8 -203.79,993.05 -168.53,2063.5 151.53,3119.7 467.9,1544.27 1458.71,2776.08 2695.77,3536.16z"/>
   <g id="_1374054736">
    <path class="fil136" d="M12946.5 10743.36c59.58,-12.91 117.87,-27.91 174.83,-45.02 134.78,-40.47 211.2,-182.56 170.73,-317.34 -40.5,-134.8 -182.65,-211.22 -317.35,-170.71 -615.04,184.69 -1479.87,54.68 -2313.43,-347.96 -776.52,-375.09 -1368.04,-916.24 -1506.93,-1378.64 -40.49,-134.78 -182.6,-211.53 -317.34,-170.72 -134.8,40.47 -211.22,182.54 -170.73,317.32 180.81,602 860.33,1249.92 1773.35,1690.94 886.04,427.96 1787.49,577.93 2506.87,422.13z"/>
   </g>
  </g>
 </g>
</svg>
