<?xml version="1.0" encoding="UTF-8"?>
<!DOCTYPE svg PUBLIC "-//W3C//DTD SVG 1.1//EN" "http://www.w3.org/Graphics/SVG/1.1/DTD/svg11.dtd">
<!-- Creator: CorelDRAW 2019 (64-Bit) -->
<svg xmlns="http://www.w3.org/2000/svg" xml:space="preserve" width="140.19mm" height="140.228mm" version="1.1" style="shape-rendering:geometricPrecision; text-rendering:geometricPrecision; image-rendering:optimizeQuality; fill-rule:evenodd; clip-rule:evenodd"
viewBox="0 0 14019 14022.8"
 xmlns:xlink="http://www.w3.org/1999/xlink"
 xmlns:xodm="http://www.corel.com/coreldraw/odm/2003">
 <defs>
  <style type="text/css">
   <![CDATA[
    .fil0 {fill:url(#id0);fill-rule:nonzero}
   ]]>
  </style>
  <linearGradient id="id0" gradientUnits="userSpaceOnUse" x1="0.02" y1="7011.39" x2="14018.97" y2="7011.39">
   <stop offset="0" style="stop-opacity:1; stop-color:#2ADEB3"/>
   <stop offset="1" style="stop-opacity:1; stop-color:#2A79EE"/>
  </linearGradient>
 </defs>
 <g id="Capa_x0020_1">
  <metadata id="CorelCorpID_0Corel-Layer"/>
  <path class="fil0" d="M86.68 12028.9l1543.69 -5017.88 -1543.69 -5018.78c-436.3,-1407.85 879.79,-2368.6 1949.4,-1849.54l11007.3 5313.84c628.12,303.59 952.49,896.51 971.94,1498.19 2.39,17.97 3.65,36.31 3.65,54.94 0,18.29 -1.2,36.3 -3.51,53.97 -17.37,602.93 -340.94,1197.65 -972.08,1501.86l-11007.3 5312.94c-1086.7,525.36 -2383.9,-449.79 -1950.3,-1849.54l0.9 0zm13009.14 -4606.77l-10729.34 0 -1491.74 4849.65c-211.4,698.98 385.02,1065.11 805.13,864.5l11004.6 -5313.84c190.76,-91.83 327.93,-234.89 411.35,-400.31zm-10730.77 -824.92l10729.55 0c-83.44,-164.04 -220.07,-305.99 -410.13,-397.62l-11005.5 -5313.84c-428.2,-206.9 -1024.63,139.44 -804.23,863.6l-0.93 0.91 1491.24 4846.95z"/>
 </g>
</svg>
