<?xml version="1.0" encoding="UTF-8"?>
<!DOCTYPE svg PUBLIC "-//W3C//DTD SVG 1.1//EN" "http://www.w3.org/Graphics/SVG/1.1/DTD/svg11.dtd">
<!-- Creator: CorelDRAW 2019 (64-Bit) -->
<svg xmlns="http://www.w3.org/2000/svg" xml:space="preserve" width="178.588mm" height="124.138mm" version="1.1" style="shape-rendering:geometricPrecision; text-rendering:geometricPrecision; image-rendering:optimizeQuality; fill-rule:evenodd; clip-rule:evenodd"
viewBox="0 0 17858.8 12413.8"
 xmlns:xlink="http://www.w3.org/1999/xlink"
 xmlns:xodm="http://www.corel.com/coreldraw/odm/2003">
 <defs>
  <style type="text/css">
   <![CDATA[
    .fil135 {fill:white}
    .fil134 {fill:#2A79EE;fill-rule:nonzero}
    .fil132 {fill:#2A7AED;fill-rule:nonzero}
    .fil133 {fill:#2A7AEE;fill-rule:nonzero}
    .fil131 {fill:#2A7BED;fill-rule:nonzero}
    .fil130 {fill:#2A7CEC;fill-rule:nonzero}
    .fil128 {fill:#2A7DEB;fill-rule:nonzero}
    .fil129 {fill:#2A7DEC;fill-rule:nonzero}
    .fil127 {fill:#2A7EEB;fill-rule:nonzero}
    .fil125 {fill:#2A7FEA;fill-rule:nonzero}
    .fil126 {fill:#2A7FEB;fill-rule:nonzero}
    .fil124 {fill:#2A80EA;fill-rule:nonzero}
    .fil122 {fill:#2A81E9;fill-rule:nonzero}
    .fil123 {fill:#2A81EA;fill-rule:nonzero}
    .fil121 {fill:#2A82E9;fill-rule:nonzero}
    .fil120 {fill:#2A83E8;fill-rule:nonzero}
    .fil118 {fill:#2A84E7;fill-rule:nonzero}
    .fil119 {fill:#2A84E8;fill-rule:nonzero}
    .fil117 {fill:#2A85E7;fill-rule:nonzero}
    .fil115 {fill:#2A86E6;fill-rule:nonzero}
    .fil116 {fill:#2A86E7;fill-rule:nonzero}
    .fil114 {fill:#2A87E6;fill-rule:nonzero}
    .fil113 {fill:#2A88E5;fill-rule:nonzero}
    .fil112 {fill:#2A89E5;fill-rule:nonzero}
    .fil111 {fill:#2A8AE4;fill-rule:nonzero}
    .fil109 {fill:#2A8BE3;fill-rule:nonzero}
    .fil110 {fill:#2A8BE4;fill-rule:nonzero}
    .fil108 {fill:#2A8CE3;fill-rule:nonzero}
    .fil107 {fill:#2A8DE2;fill-rule:nonzero}
    .fil106 {fill:#2A8EE2;fill-rule:nonzero}
    .fil105 {fill:#2A8FE1;fill-rule:nonzero}
    .fil103 {fill:#2A90E0;fill-rule:nonzero}
    .fil104 {fill:#2A90E1;fill-rule:nonzero}
    .fil102 {fill:#2A91E0;fill-rule:nonzero}
    .fil100 {fill:#2A92DF;fill-rule:nonzero}
    .fil101 {fill:#2A92E0;fill-rule:nonzero}
    .fil99 {fill:#2A93DF;fill-rule:nonzero}
    .fil98 {fill:#2A94DE;fill-rule:nonzero}
    .fil97 {fill:#2A95DE;fill-rule:nonzero}
    .fil96 {fill:#2A96DD;fill-rule:nonzero}
    .fil94 {fill:#2A97DC;fill-rule:nonzero}
    .fil95 {fill:#2A97DD;fill-rule:nonzero}
    .fil93 {fill:#2A98DC;fill-rule:nonzero}
    .fil92 {fill:#2A99DB;fill-rule:nonzero}
    .fil91 {fill:#2A9ADB;fill-rule:nonzero}
    .fil90 {fill:#2A9BDA;fill-rule:nonzero}
    .fil88 {fill:#2A9CD9;fill-rule:nonzero}
    .fil89 {fill:#2A9CDA;fill-rule:nonzero}
    .fil87 {fill:#2A9DD9;fill-rule:nonzero}
    .fil86 {fill:#2A9ED8;fill-rule:nonzero}
    .fil85 {fill:#2A9FD8;fill-rule:nonzero}
    .fil84 {fill:#2AA0D7;fill-rule:nonzero}
    .fil82 {fill:#2AA1D6;fill-rule:nonzero}
    .fil83 {fill:#2AA1D7;fill-rule:nonzero}
    .fil81 {fill:#2AA2D6;fill-rule:nonzero}
    .fil79 {fill:#2AA3D5;fill-rule:nonzero}
    .fil80 {fill:#2AA3D6;fill-rule:nonzero}
    .fil78 {fill:#2AA4D5;fill-rule:nonzero}
    .fil76 {fill:#2AA5D4;fill-rule:nonzero}
    .fil77 {fill:#2AA5D5;fill-rule:nonzero}
    .fil75 {fill:#2AA6D4;fill-rule:nonzero}
    .fil74 {fill:#2AA7D3;fill-rule:nonzero}
    .fil72 {fill:#2AA8D2;fill-rule:nonzero}
    .fil73 {fill:#2AA8D3;fill-rule:nonzero}
    .fil71 {fill:#2AA9D2;fill-rule:nonzero}
    .fil69 {fill:#2AAAD1;fill-rule:nonzero}
    .fil70 {fill:#2AAAD2;fill-rule:nonzero}
    .fil68 {fill:#2AABD1;fill-rule:nonzero}
    .fil67 {fill:#2AACD0;fill-rule:nonzero}
    .fil65 {fill:#2AADCF;fill-rule:nonzero}
    .fil66 {fill:#2AADD0;fill-rule:nonzero}
    .fil64 {fill:#2AAECF;fill-rule:nonzero}
    .fil62 {fill:#2AAFCE;fill-rule:nonzero}
    .fil63 {fill:#2AAFCF;fill-rule:nonzero}
    .fil61 {fill:#2AB0CE;fill-rule:nonzero}
    .fil60 {fill:#2AB1CD;fill-rule:nonzero}
    .fil58 {fill:#2AB2CC;fill-rule:nonzero}
    .fil59 {fill:#2AB2CD;fill-rule:nonzero}
    .fil57 {fill:#2AB3CC;fill-rule:nonzero}
    .fil55 {fill:#2AB4CB;fill-rule:nonzero}
    .fil56 {fill:#2AB4CC;fill-rule:nonzero}
    .fil54 {fill:#2AB5CB;fill-rule:nonzero}
    .fil52 {fill:#2AB6CA;fill-rule:nonzero}
    .fil53 {fill:#2AB6CB;fill-rule:nonzero}
    .fil51 {fill:#2AB7CA;fill-rule:nonzero}
    .fil50 {fill:#2AB8C9;fill-rule:nonzero}
    .fil49 {fill:#2AB9C9;fill-rule:nonzero}
    .fil48 {fill:#2ABAC8;fill-rule:nonzero}
    .fil46 {fill:#2ABBC7;fill-rule:nonzero}
    .fil47 {fill:#2ABBC8;fill-rule:nonzero}
    .fil45 {fill:#2ABCC7;fill-rule:nonzero}
    .fil44 {fill:#2ABDC6;fill-rule:nonzero}
    .fil43 {fill:#2ABEC6;fill-rule:nonzero}
    .fil42 {fill:#2ABFC5;fill-rule:nonzero}
    .fil40 {fill:#2AC0C4;fill-rule:nonzero}
    .fil41 {fill:#2AC0C5;fill-rule:nonzero}
    .fil39 {fill:#2AC1C4;fill-rule:nonzero}
    .fil38 {fill:#2AC2C3;fill-rule:nonzero}
    .fil37 {fill:#2AC3C3;fill-rule:nonzero}
    .fil36 {fill:#2AC4C2;fill-rule:nonzero}
    .fil34 {fill:#2AC5C1;fill-rule:nonzero}
    .fil35 {fill:#2AC5C2;fill-rule:nonzero}
    .fil33 {fill:#2AC6C1;fill-rule:nonzero}
    .fil31 {fill:#2AC7C0;fill-rule:nonzero}
    .fil32 {fill:#2AC7C1;fill-rule:nonzero}
    .fil30 {fill:#2AC8C0;fill-rule:nonzero}
    .fil29 {fill:#2AC9BF;fill-rule:nonzero}
    .fil28 {fill:#2ACABF;fill-rule:nonzero}
    .fil27 {fill:#2ACBBE;fill-rule:nonzero}
    .fil25 {fill:#2ACCBD;fill-rule:nonzero}
    .fil26 {fill:#2ACCBE;fill-rule:nonzero}
    .fil24 {fill:#2ACDBD;fill-rule:nonzero}
    .fil23 {fill:#2ACEBC;fill-rule:nonzero}
    .fil22 {fill:#2ACFBC;fill-rule:nonzero}
    .fil21 {fill:#2AD0BB;fill-rule:nonzero}
    .fil19 {fill:#2AD1BA;fill-rule:nonzero}
    .fil20 {fill:#2AD1BB;fill-rule:nonzero}
    .fil18 {fill:#2AD2BA;fill-rule:nonzero}
    .fil16 {fill:#2AD3B9;fill-rule:nonzero}
    .fil17 {fill:#2AD3BA;fill-rule:nonzero}
    .fil15 {fill:#2AD4B9;fill-rule:nonzero}
    .fil14 {fill:#2AD5B8;fill-rule:nonzero}
    .fil12 {fill:#2AD6B7;fill-rule:nonzero}
    .fil13 {fill:#2AD6B8;fill-rule:nonzero}
    .fil11 {fill:#2AD7B7;fill-rule:nonzero}
    .fil9 {fill:#2AD8B6;fill-rule:nonzero}
    .fil10 {fill:#2AD8B7;fill-rule:nonzero}
    .fil8 {fill:#2AD9B6;fill-rule:nonzero}
    .fil6 {fill:#2ADAB5;fill-rule:nonzero}
    .fil7 {fill:#2ADAB6;fill-rule:nonzero}
    .fil5 {fill:#2ADBB5;fill-rule:nonzero}
    .fil4 {fill:#2ADCB4;fill-rule:nonzero}
    .fil2 {fill:#2ADDB3;fill-rule:nonzero}
    .fil3 {fill:#2ADDB4;fill-rule:nonzero}
    .fil1 {fill:#2ADEB3;fill-rule:nonzero}
    .fil0 {fill:white;fill-rule:nonzero}
   ]]>
  </style>
     <clipPath id="id0" style="clip-rule:nonzero">
      <path d="M10132.66 8017.72c-1930.97,248.35 -1811.14,-655.07 -3829.84,-395.44 -530.02,68.16 -999.29,-51.43 -1409.24,-357.54 -409.43,-306.18 -648.68,-729.83 -718.19,-1270.36 -72.36,-562.59 51.56,-1035.61 372.28,-1419.14 1389.54,-1655.71 883.12,-1952.08 1827.76,-3081.2 686.84,-820.96 1597.64,-1303.88 2731.75,-1449.74 1133.58,-145.79 2136.94,90.94 3009.17,711.39 872.23,620.44 1386.35,1533.1 1541.34,2738.13 148.83,1157.22 -118.37,2164.5 -800.69,3020.65 -682.25,856.68 -1590.75,1357.46 -2724.34,1503.25z"/>
     </clipPath>
 </defs>
 <g id="Capa_x0020_1">
  <metadata id="CorelCorpID_0Corel-Layer"/>
  <g id="_2230616128">
   <path class="fil0" d="M16134.82 12416.38c-540.55,0 -962.53,-148.22 -1265.89,-444.6 -303.42,-296.44 -455.1,-716.69 -455.1,-1260.7l0 -2029.66 1035.74 0 0 1998.27c0,313.87 61.91,538.82 185.66,674.81 123.82,135.98 293.85,204.01 510.03,204.01 216.24,0 385.41,-68.03 507.43,-204.01 122.09,-135.99 183.13,-360.94 183.13,-674.81l0 -1998.27 1020.05 0 0 2029.66c0,544.01 -151.74,964.26 -455.1,1260.7 -303.42,296.38 -725.4,444.6 -1265.95,444.6zm-14123.85 0c-289.39,0 -557.1,-46.22 -802.94,-138.59 -245.84,-92.42 -458.56,-224.08 -638.16,-394.98 -179.61,-170.83 -319.98,-372.25 -421.12,-604.18 -101.14,-231.88 -151.68,-487.35 -151.68,-766.31 0,-279.01 50.54,-534.49 151.68,-766.36 101.14,-231.94 241.51,-433.29 421.12,-604.19 179.6,-170.89 392.32,-302.55 638.16,-394.98 245.84,-92.37 513.55,-138.58 802.94,-138.58 338.33,0 640.83,59.25 907.61,177.81 266.78,118.63 489.14,289.46 666.96,512.68l-659.11 596.34c-118.57,-139.51 -248.44,-245.9 -389.67,-319.11 -141.3,-73.22 -299.1,-109.85 -473.45,-109.85 -149.95,0 -287.73,24.4 -413.28,73.21 -125.54,48.87 -232.74,119.49 -321.7,211.92 -88.91,92.36 -158.67,203.08 -209.2,332.15 -50.61,129 -75.88,272.03 -75.88,428.96 0,156.93 25.27,299.9 75.88,428.91 50.53,129.06 120.29,239.78 209.2,332.21 88.96,92.36 196.16,162.98 321.7,211.85 125.55,48.81 263.33,73.22 413.28,73.22 174.35,0 332.15,-36.64 473.45,-109.85 141.23,-73.22 271.1,-179.61 389.67,-319.12l659.11 596.34c-177.82,219.7 -400.18,389.73 -666.96,510.03 -266.78,120.35 -569.28,180.47 -907.61,180.47zm3834.37 -2955.56c219.7,0 418.46,44.49 596.34,133.39 177.87,88.97 318.25,225.82 421.12,410.68 102.87,184.8 154.33,423.72 154.33,716.63l0 1621.64 -993.91 0 0 -1459.46c0,-202.28 -40.97,-349.63 -122.95,-442 -81.93,-92.43 -196.17,-138.64 -342.66,-138.64 -104.6,0 -200.49,23.54 -287.66,70.62 -87.18,47.08 -155.2,119.43 -204.01,217.11 -48.81,97.62 -73.28,224.89 -73.28,381.82l0 1370.55 -993.85 0 0 -3696.09 993.85 0 0 1666.43 -230.14 -235.39c108.12,-205.74 256.34,-360.08 444.66,-462.95 188.31,-102.87 401.03,-154.34 638.16,-154.34zm3525.69 2882.34l0 -366.31c-57.02,109.6 -136.35,197.7 -237.99,264.31 -151.68,99.41 -351.36,149.08 -598.93,149.08 -226.68,0 -418.52,-38.37 -575.45,-115.1 -156.93,-76.68 -276.36,-181.34 -358.29,-313.86 -81.99,-132.53 -122.95,-280.69 -122.95,-444.6 0,-174.42 44.49,-325.23 133.39,-452.5 88.91,-127.28 225.82,-224.96 410.62,-292.92 184.86,-68.03 423.71,-102.01 716.69,-102.01l563.78 0c-7.91,-136.79 -55.48,-244.04 -142.72,-321.71 -95.89,-85.44 -248.43,-128.2 -457.7,-128.2 -135.98,0 -273.76,21.81 -413.27,65.43 -139.44,43.56 -258.07,103.74 -355.69,180.47l-334.8 -674.8c160.45,-104.66 353.09,-185.72 578.04,-243.3 224.96,-57.53 448.99,-86.32 672.21,-86.32 460.29,0 816.91,105.53 1069.73,316.52 252.82,210.99 379.29,541.41 379.29,991.26l0 1574.56 -925.96 0zm-67.96 -910.2l0 -245.83 -428.96 0c-160.39,0 -272.9,26.13 -337.4,78.46 -64.51,52.27 -96.76,122.02 -96.76,209.2 0,87.18 33.12,156.93 99.35,209.26 66.29,52.33 156.93,78.47 272.03,78.47 108.13,0 206.61,-27 295.58,-81.06 88.91,-54.06 154.27,-136.92 196.16,-248.5zm2887.53 957.28c-362.67,0 -645.15,-89.77 -847.43,-269.38 -202.28,-179.6 -303.42,-450.77 -303.42,-813.44l0 -952.03 -413.21 0 0 -742.83 413.21 0 0 -922.92 993.92 0 0 922.92 648.67 0 0 742.83 -648.67 0 0 941.59c0,100.89 27.93,180.47 83.72,237.99 55.79,57.52 127.27,86.31 214.45,86.31 118.56,0 219.7,-29.66 303.42,-88.91l245.84 695.69c-83.72,55.79 -186.59,96.81 -308.61,122.95 -122.09,26.13 -249.36,39.23 -381.89,39.23zm1543.18 0c-167.38,0 -308.61,-55.79 -423.72,-167.37 -115.1,-111.64 -172.62,-252.88 -172.62,-423.71 0,-177.88 57.52,-319.98 172.62,-426.37 115.11,-106.33 256.34,-159.53 423.72,-159.53 167.37,0 308.61,53.2 423.71,159.53 115.1,106.39 172.62,248.49 172.62,426.37 0,170.83 -57.52,312.07 -172.62,423.71 -115.1,111.58 -256.34,167.37 -423.71,167.37z"/>
   <g>
    <g style="clip-path:url(#id0)">
     <polygon class="fil1" points="3502.83,765.09 3521.67,762.67 4547.15,8736.09 4528.31,8738.51 "/>
     <polygon id="1" class="fil1" points="3502.83,765.09 3559.34,757.82 4584.83,8731.25 4528.32,8738.51 "/>
     <polygon id="2" class="fil1" points="3540.5,760.24 3597.01,752.98 4622.5,8726.4 4565.99,8733.67 "/>
     <polygon id="3" class="fil2" points="3578.18,755.4 3634.69,748.13 4660.17,8721.56 4603.66,8728.82 "/>
     <polygon id="4" class="fil3" points="3615.85,750.55 3672.36,743.29 4697.85,8716.71 4641.34,8723.98 "/>
     <polygon id="5" class="fil4" points="3653.53,745.71 3710.04,738.44 4735.52,8711.87 4679.01,8719.13 "/>
     <polygon id="6" class="fil4" points="3691.2,740.86 3747.71,733.6 4773.19,8707.02 4716.68,8714.29 "/>
     <polygon id="7" class="fil4" points="3728.87,736.02 3785.38,728.75 4810.87,8702.17 4754.36,8709.44 "/>
     <polygon id="8" class="fil5" points="3766.55,731.17 3823.06,723.9 4848.54,8697.33 4792.03,8704.6 "/>
     <polygon id="9" class="fil5" points="3804.22,726.33 3860.73,719.06 4886.21,8692.48 4829.7,8699.75 "/>
     <polygon id="10" class="fil6" points="3841.89,721.48 3898.4,714.21 4923.89,8687.64 4867.38,8694.91 "/>
     <polygon id="11" class="fil6" points="3879.57,716.64 3936.08,709.37 4961.56,8682.79 4905.05,8690.06 "/>
     <polygon id="12" class="fil7" points="3917.24,711.79 3973.75,704.52 4999.23,8677.95 4942.72,8685.22 "/>
     <polygon id="13" class="fil8" points="3954.91,706.95 4011.42,699.68 5036.91,8673.1 4980.4,8680.37 "/>
     <polygon id="14" class="fil8" points="3992.59,702.1 4049.1,694.83 5074.58,8668.26 5018.07,8675.53 "/>
     <polygon id="15" class="fil9" points="4030.26,697.26 4086.77,689.99 5112.25,8663.41 5055.74,8670.68 "/>
     <polygon id="16" class="fil9" points="4067.93,692.41 4124.44,685.14 5149.93,8658.57 5093.42,8665.84 "/>
     <polygon id="17" class="fil10" points="4105.61,687.57 4162.12,680.3 5187.6,8653.72 5131.09,8660.99 "/>
     <polygon id="18" class="fil11" points="4143.28,682.72 4199.79,675.45 5225.27,8648.88 5168.76,8656.14 "/>
     <polygon id="19" class="fil11" points="4180.95,677.87 4237.46,670.61 5262.95,8644.03 5206.44,8651.3 "/>
     <polygon id="20" class="fil12" points="4218.63,673.03 4275.14,665.76 5300.62,8639.19 5244.11,8646.45 "/>
     <polygon id="21" class="fil13" points="4256.3,668.18 4312.81,660.92 5338.29,8634.34 5281.78,8641.61 "/>
     <polygon id="22" class="fil13" points="4293.97,663.34 4350.48,656.07 5375.97,8629.5 5319.46,8636.76 "/>
     <polygon id="23" class="fil14" points="4331.65,658.49 4388.16,651.23 5413.64,8624.65 5357.13,8631.92 "/>
     <polygon id="24" class="fil14" points="4369.32,653.65 4425.83,646.38 5451.31,8619.81 5394.8,8627.07 "/>
     <polygon id="25" class="fil15" points="4406.99,648.8 4463.5,641.54 5488.99,8614.96 5432.48,8622.23 "/>
     <polygon id="26" class="fil15" points="4444.67,643.96 4501.18,636.69 5526.66,8610.11 5470.15,8617.38 "/>
     <polygon id="27" class="fil15" points="4482.34,639.11 4538.85,631.84 5564.33,8605.27 5507.82,8612.54 "/>
     <polygon id="28" class="fil16" points="4520.01,634.27 4576.52,627 5602.01,8600.42 5545.5,8607.69 "/>
     <polygon id="29" class="fil16" points="4557.69,629.42 4614.2,622.15 5639.68,8595.58 5583.17,8602.85 "/>
     <polygon id="30" class="fil17" points="4595.36,624.58 4651.87,617.31 5677.35,8590.73 5620.84,8598 "/>
     <polygon id="31" class="fil18" points="4633.03,619.73 4689.54,612.46 5715.03,8585.89 5658.52,8593.16 "/>
     <polygon id="32" class="fil18" points="4670.71,614.89 4727.22,607.62 5752.7,8581.04 5696.19,8588.31 "/>
     <polygon id="33" class="fil19" points="4708.38,610.04 4764.89,602.77 5790.37,8576.2 5733.86,8583.47 "/>
     <polygon id="34" class="fil20" points="4746.05,605.2 4802.56,597.93 5828.05,8571.35 5771.54,8578.62 "/>
     <polygon id="35" class="fil20" points="4783.73,600.35 4840.24,593.08 5865.72,8566.51 5809.21,8573.78 "/>
     <polygon id="36" class="fil21" points="4821.4,595.51 4877.91,588.24 5903.39,8561.66 5846.88,8568.93 "/>
     <polygon id="37" class="fil21" points="4859.07,590.66 4915.58,583.39 5941.07,8556.82 5884.56,8564.08 "/>
     <polygon id="38" class="fil22" points="4896.75,585.81 4953.26,578.55 5978.74,8551.97 5922.23,8559.24 "/>
     <polygon id="39" class="fil22" points="4934.42,580.97 4990.93,573.7 6016.41,8547.13 5959.9,8554.39 "/>
     <polygon id="40" class="fil22" points="4972.09,576.12 5028.6,568.86 6054.09,8542.28 5997.58,8549.55 "/>
     <polygon id="41" class="fil23" points="5009.77,571.28 5066.28,564.01 6091.76,8537.44 6035.25,8544.7 "/>
     <polygon id="42" class="fil23" points="5047.44,566.43 5103.95,559.17 6129.43,8532.59 6072.92,8539.86 "/>
     <polygon id="43" class="fil24" points="5085.11,561.59 5141.62,554.32 6167.11,8527.74 6110.6,8535.01 "/>
     <polygon id="44" class="fil24" points="5122.79,556.74 5179.3,549.48 6204.78,8522.9 6148.27,8530.17 "/>
     <polygon id="45" class="fil24" points="5160.46,551.9 5216.97,544.63 6242.45,8518.05 6185.94,8525.32 "/>
     <polygon id="46" class="fil25" points="5198.13,547.05 5254.64,539.78 6280.13,8513.21 6223.62,8520.48 "/>
     <polygon id="47" class="fil26" points="5235.81,542.21 5292.32,534.94 6317.8,8508.36 6261.29,8515.63 "/>
     <polygon id="48" class="fil27" points="5273.48,537.36 5329.99,530.09 6355.47,8503.52 6298.96,8510.79 "/>
     <polygon id="49" class="fil27" points="5311.15,532.52 5367.66,525.25 6393.15,8498.67 6336.64,8505.94 "/>
     <polygon id="50" class="fil27" points="5348.83,527.67 5405.34,520.4 6430.82,8493.83 6374.31,8501.1 "/>
     <polygon id="51" class="fil28" points="5386.5,522.83 5443.01,515.56 6468.49,8488.98 6411.98,8496.25 "/>
     <polygon id="52" class="fil28" points="5424.17,517.98 5480.68,510.71 6506.17,8484.14 6449.66,8491.41 "/>
     <polygon id="53" class="fil29" points="5461.85,513.14 5518.36,505.87 6543.84,8479.29 6487.33,8486.56 "/>
     <polygon id="54" class="fil29" points="5499.52,508.29 5556.03,501.02 6581.51,8474.45 6525,8481.71 "/>
     <polygon id="55" class="fil29" points="5537.19,503.44 5593.7,496.18 6619.19,8469.6 6562.68,8476.87 "/>
     <polygon id="56" class="fil30" points="5574.87,498.6 5631.38,491.33 6656.86,8464.76 6600.35,8472.02 "/>
     <polygon id="57" class="fil30" points="5612.54,493.75 5669.05,486.49 6694.53,8459.91 6638.02,8467.18 "/>
     <polygon id="58" class="fil31" points="5650.21,488.91 5706.72,481.64 6732.21,8455.07 6675.7,8462.33 "/>
     <polygon id="59" class="fil31" points="5687.89,484.06 5744.4,476.8 6769.88,8450.22 6713.37,8457.49 "/>
     <polygon id="60" class="fil32" points="5725.56,479.22 5782.07,471.95 6807.55,8445.38 6751.04,8452.64 "/>
     <polygon id="61" class="fil33" points="5763.23,474.37 5819.74,467.11 6845.23,8440.53 6788.72,8447.8 "/>
     <polygon id="62" class="fil33" points="5800.91,469.53 5857.42,462.26 6882.9,8435.68 6826.39,8442.95 "/>
     <polygon id="63" class="fil34" points="5838.58,464.68 5895.09,457.41 6920.57,8430.84 6864.06,8438.11 "/>
     <polygon id="64" class="fil35" points="5876.25,459.84 5932.76,452.57 6958.25,8425.99 6901.74,8433.26 "/>
     <polygon id="65" class="fil35" points="5913.93,454.99 5970.44,447.72 6995.92,8421.15 6939.41,8428.42 "/>
     <polygon id="66" class="fil36" points="5951.6,450.15 6008.11,442.88 7033.59,8416.3 6977.08,8423.57 "/>
     <polygon id="67" class="fil36" points="5989.27,445.3 6045.78,438.03 7071.27,8411.46 7014.76,8418.73 "/>
     <polygon id="68" class="fil37" points="6026.95,440.46 6083.46,433.19 7108.94,8406.61 7052.43,8413.88 "/>
     <polygon id="69" class="fil37" points="6064.62,435.61 6121.13,428.34 7146.61,8401.77 7090.1,8409.04 "/>
     <polygon id="70" class="fil37" points="6102.29,430.77 6158.8,423.5 7184.29,8396.92 7127.78,8404.19 "/>
     <polygon id="71" class="fil38" points="6139.97,425.92 6196.48,418.65 7221.96,8392.08 7165.45,8399.35 "/>
     <polygon id="72" class="fil38" points="6177.64,421.08 6234.15,413.81 7259.63,8387.23 7203.12,8394.5 "/>
     <polygon id="73" class="fil39" points="6215.31,416.23 6271.82,408.96 7297.31,8382.39 7240.8,8389.65 "/>
     <polygon id="74" class="fil39" points="6252.99,411.38 6309.5,404.12 7334.98,8377.54 7278.47,8384.81 "/>
     <polygon id="75" class="fil39" points="6290.66,406.54 6347.17,399.27 7372.65,8372.7 7316.14,8379.96 "/>
     <polygon id="76" class="fil40" points="6328.33,401.69 6384.84,394.43 7410.33,8367.85 7353.82,8375.12 "/>
     <polygon id="77" class="fil41" points="6366.01,396.85 6422.52,389.58 7448,8363.01 7391.49,8370.27 "/>
     <polygon id="78" class="fil41" points="6403.68,392 6460.19,384.74 7485.67,8358.16 7429.16,8365.43 "/>
     <polygon id="79" class="fil42" points="6441.35,387.16 6497.86,379.89 7523.35,8353.32 7466.84,8360.58 "/>
     <polygon id="80" class="fil42" points="6479.03,382.31 6535.54,375.05 7561.02,8348.47 7504.51,8355.74 "/>
     <polygon id="81" class="fil43" points="6516.7,377.47 6573.21,370.2 7598.69,8343.62 7542.18,8350.89 "/>
     <polygon id="82" class="fil43" points="6554.37,372.62 6610.88,365.35 7636.37,8338.78 7579.86,8346.05 "/>
     <polygon id="83" class="fil43" points="6592.05,367.78 6648.56,360.51 7674.04,8333.93 7617.53,8341.2 "/>
     <polygon id="84" class="fil44" points="6629.72,362.93 6686.23,355.66 7711.71,8329.09 7655.2,8336.36 "/>
     <polygon id="85" class="fil44" points="6667.39,358.09 6723.9,350.82 7749.39,8324.24 7692.88,8331.51 "/>
     <polygon id="86" class="fil45" points="6705.07,353.24 6761.58,345.97 7787.06,8319.4 7730.55,8326.67 "/>
     <polygon id="87" class="fil45" points="6742.74,348.4 6799.25,341.13 7824.73,8314.55 7768.22,8321.82 "/>
     <polygon id="88" class="fil45" points="6780.41,343.55 6836.92,336.28 7862.41,8309.71 7805.9,8316.98 "/>
     <polygon id="89" class="fil46" points="6818.09,338.71 6874.6,331.44 7900.08,8304.86 7843.57,8312.13 "/>
     <polygon id="90" class="fil47" points="6855.76,333.86 6912.27,326.59 7937.75,8300.02 7881.24,8307.29 "/>
     <polygon id="91" class="fil48" points="6893.43,329.02 6949.94,321.75 7975.43,8295.17 7918.92,8302.44 "/>
     <polygon id="92" class="fil48" points="6931.11,324.17 6987.62,316.9 8013.1,8290.33 7956.59,8297.59 "/>
     <polygon id="93" class="fil48" points="6968.78,319.32 7025.29,312.06 8050.77,8285.48 7994.26,8292.75 "/>
     <polygon id="94" class="fil49" points="7006.45,314.48 7062.96,307.21 8088.45,8280.64 8031.94,8287.9 "/>
     <polygon id="95" class="fil49" points="7044.13,309.63 7100.64,302.37 8126.12,8275.79 8069.61,8283.06 "/>
     <polygon id="96" class="fil50" points="7081.8,304.79 7138.31,297.52 8163.79,8270.95 8107.28,8278.21 "/>
     <polygon id="97" class="fil50" points="7119.47,299.94 7175.98,292.68 8201.47,8266.1 8144.96,8273.37 "/>
     <polygon id="98" class="fil50" points="7157.15,295.1 7213.66,287.83 8239.14,8261.25 8182.63,8268.52 "/>
     <polygon id="99" class="fil51" points="7194.82,290.25 7251.33,282.99 8276.81,8256.41 8220.3,8263.68 "/>
     <polygon id="100" class="fil51" points="7232.49,285.41 7289,278.14 8314.49,8251.56 8257.98,8258.83 "/>
     <polygon id="101" class="fil52" points="7270.17,280.56 7326.68,273.29 8352.16,8246.72 8295.65,8253.99 "/>
     <polygon id="102" class="fil52" points="7307.84,275.72 7364.35,268.45 8389.83,8241.87 8333.32,8249.14 "/>
     <polygon id="103" class="fil53" points="7345.51,270.87 7402.02,263.6 8427.51,8237.03 8371,8244.3 "/>
     <polygon id="104" class="fil54" points="7383.19,266.03 7439.7,258.76 8465.18,8232.18 8408.67,8239.45 "/>
     <polygon id="105" class="fil54" points="7420.86,261.18 7477.37,253.91 8502.85,8227.34 8446.34,8234.61 "/>
     <polygon id="106" class="fil55" points="7458.53,256.34 7515.04,249.07 8540.53,8222.49 8484.02,8229.76 "/>
     <polygon id="107" class="fil56" points="7496.21,251.49 7552.72,244.22 8578.2,8217.65 8521.69,8224.92 "/>
     <polygon id="108" class="fil56" points="7533.88,246.65 7590.39,239.38 8615.87,8212.8 8559.36,8220.07 "/>
     <polygon id="109" class="fil57" points="7571.55,241.8 7628.06,234.53 8653.55,8207.96 8597.04,8215.22 "/>
     <polygon id="110" class="fil57" points="7609.23,236.95 7665.74,229.69 8691.22,8203.11 8634.71,8210.38 "/>
     <polygon id="111" class="fil58" points="7646.9,232.11 7703.41,224.84 8728.89,8198.27 8672.38,8205.53 "/>
     <polygon id="112" class="fil59" points="7684.57,227.26 7741.08,220 8766.57,8193.42 8710.06,8200.69 "/>
     <polygon id="113" class="fil59" points="7722.25,222.42 7778.76,215.15 8804.24,8188.58 8747.73,8195.84 "/>
     <polygon id="114" class="fil60" points="7759.92,217.57 7816.43,210.31 8841.91,8183.73 8785.4,8191 "/>
     <polygon id="115" class="fil60" points="7797.59,212.73 7854.1,205.46 8879.59,8178.89 8823.08,8186.15 "/>
     <polygon id="116" class="fil61" points="7835.27,207.88 7891.78,200.62 8917.26,8174.04 8860.75,8181.31 "/>
     <polygon id="117" class="fil61" points="7872.94,203.04 7929.45,195.77 8954.93,8169.19 8898.42,8176.46 "/>
     <polygon id="118" class="fil61" points="7910.61,198.19 7967.12,190.92 8992.61,8164.35 8936.1,8171.62 "/>
     <polygon id="119" class="fil62" points="7948.29,193.35 8004.8,186.08 9030.28,8159.5 8973.77,8166.77 "/>
     <polygon id="120" class="fil63" points="7985.96,188.5 8042.47,181.23 9067.95,8154.66 9011.44,8161.93 "/>
     <polygon id="121" class="fil64" points="8023.63,183.66 8080.14,176.39 9105.63,8149.81 9049.12,8157.08 "/>
     <polygon id="122" class="fil64" points="8061.31,178.81 8117.82,171.54 9143.3,8144.97 9086.79,8152.24 "/>
     <polygon id="123" class="fil64" points="8098.98,173.97 8155.49,166.7 9180.97,8140.12 9124.46,8147.39 "/>
     <polygon id="124" class="fil65" points="8136.65,169.12 8193.16,161.85 9218.65,8135.28 9162.14,8142.55 "/>
     <polygon id="125" class="fil66" points="8174.33,164.28 8230.84,157.01 9256.32,8130.43 9199.81,8137.7 "/>
     <polygon id="126" class="fil67" points="8212,159.43 8268.51,152.16 9293.99,8125.59 9237.48,8132.86 "/>
     <polygon id="127" class="fil67" points="8249.67,154.59 8306.18,147.32 9331.67,8120.74 9275.16,8128.01 "/>
     <polygon id="128" class="fil67" points="8287.35,149.74 8343.86,142.47 9369.34,8115.9 9312.83,8123.16 "/>
     <polygon id="129" class="fil68" points="8325.02,144.89 8381.53,137.63 9407.01,8111.05 9350.5,8118.32 "/>
     <polygon id="130" class="fil68" points="8362.69,140.05 8419.2,132.78 9444.69,8106.21 9388.18,8113.47 "/>
     <polygon id="131" class="fil68" points="8400.37,135.2 8456.88,127.94 9482.36,8101.36 9425.85,8108.63 "/>
     <polygon id="132" class="fil69" points="8438.04,130.36 8494.55,123.09 9520.03,8096.52 9463.52,8103.78 "/>
     <polygon id="133" class="fil70" points="8475.71,125.51 8532.22,118.25 9557.71,8091.67 9501.2,8098.94 "/>
     <polygon id="134" class="fil71" points="8513.39,120.67 8569.9,113.4 9595.38,8086.83 9538.87,8094.09 "/>
     <polygon id="135" class="fil71" points="8551.06,115.82 8607.57,108.56 9633.05,8081.98 9576.54,8089.25 "/>
     <polygon id="136" class="fil71" points="8588.73,110.98 8645.24,103.71 9670.73,8077.13 9614.22,8084.4 "/>
     <polygon id="137" class="fil72" points="8626.41,106.13 8682.92,98.86 9708.4,8072.29 9651.89,8079.56 "/>
     <polygon id="138" class="fil73" points="8664.08,101.29 8720.59,94.02 9746.07,8067.44 9689.56,8074.71 "/>
     <polygon id="139" class="fil74" points="8701.75,96.44 8758.26,89.17 9783.75,8062.6 9727.24,8069.87 "/>
     <polygon id="140" class="fil74" points="8739.43,91.6 8795.94,84.33 9821.42,8057.75 9764.91,8065.02 "/>
     <polygon id="141" class="fil74" points="8777.1,86.75 8833.61,79.48 9859.09,8052.91 9802.58,8060.18 "/>
     <polygon id="142" class="fil75" points="8814.77,81.91 8871.28,74.64 9896.77,8048.06 9840.26,8055.33 "/>
     <polygon id="143" class="fil75" points="8852.45,77.06 8908.96,69.79 9934.44,8043.22 9877.93,8050.49 "/>
     <polygon id="144" class="fil76" points="8890.12,72.22 8946.63,64.95 9972.11,8038.37 9915.6,8045.64 "/>
     <polygon id="145" class="fil76" points="8927.79,67.37 8984.3,60.1 10009.79,8033.53 9953.28,8040.8 "/>
     <polygon id="146" class="fil77" points="8965.47,62.53 9021.98,55.26 10047.46,8028.68 9990.95,8035.95 "/>
     <polygon id="147" class="fil78" points="9003.14,57.68 9059.65,50.41 10085.13,8023.84 10028.62,8031.1 "/>
     <polygon id="148" class="fil78" points="9040.81,52.83 9097.32,45.57 10122.81,8018.99 10066.3,8026.26 "/>
     <polygon id="149" class="fil79" points="9078.49,47.99 9135,40.72 10160.48,8014.15 10103.97,8021.41 "/>
     <polygon id="150" class="fil79" points="9116.16,43.14 9172.67,35.88 10198.15,8009.3 10141.64,8016.57 "/>
     <polygon id="151" class="fil80" points="9153.83,38.3 9210.34,31.03 10235.83,8004.46 10179.32,8011.72 "/>
     <polygon id="152" class="fil81" points="9191.51,33.45 9248.02,26.19 10273.5,7999.61 10216.99,8006.88 "/>
     <polygon id="153" class="fil81" points="9229.18,28.61 9285.69,21.34 10311.17,7994.76 10254.66,8002.03 "/>
     <polygon id="154" class="fil82" points="9266.85,23.76 9323.36,16.5 10348.85,7989.92 10292.34,7997.19 "/>
     <polygon id="155" class="fil83" points="9304.53,18.92 9361.04,11.65 10386.52,7985.07 10330.01,7992.34 "/>
     <polygon id="156" class="fil83" points="9342.2,14.07 9398.71,6.8 10424.19,7980.23 10367.68,7987.5 "/>
     <polygon id="157" class="fil84" points="9379.87,9.23 9436.38,1.96 10461.87,7975.38 10405.36,7982.65 "/>
     <polygon id="158" class="fil84" points="9417.55,4.38 9474.06,-2.89 10499.54,7970.54 10443.03,7977.81 "/>
     <polygon id="159" class="fil85" points="9455.22,-0.46 9511.73,-7.73 10537.21,7965.69 10480.7,7972.96 "/>
     <polygon id="160" class="fil85" points="9492.89,-5.31 9549.4,-12.58 10574.89,7960.85 10518.38,7968.12 "/>
     <polygon id="161" class="fil85" points="9530.57,-10.15 9587.08,-17.42 10612.56,7956 10556.05,7963.27 "/>
     <polygon id="162" class="fil86" points="9568.24,-15 9624.75,-22.27 10650.23,7951.16 10593.72,7958.43 "/>
     <polygon id="163" class="fil86" points="9605.91,-19.84 9662.42,-27.11 10687.91,7946.31 10631.4,7953.58 "/>
     <polygon id="164" class="fil87" points="9643.59,-24.69 9700.1,-31.96 10725.58,7941.47 10669.07,7948.73 "/>
     <polygon id="165" class="fil87" points="9681.26,-29.53 9737.77,-36.8 10763.25,7936.62 10706.74,7943.89 "/>
     <polygon id="166" class="fil87" points="9718.93,-34.38 9775.44,-41.65 10800.93,7931.78 10744.42,7939.04 "/>
     <polygon id="167" class="fil88" points="9756.61,-39.23 9813.12,-46.49 10838.6,7926.93 10782.09,7934.2 "/>
     <polygon id="168" class="fil89" points="9794.28,-44.07 9850.79,-51.34 10876.27,7922.09 10819.76,7929.35 "/>
     <polygon id="169" class="fil90" points="9831.95,-48.92 9888.46,-56.18 10913.95,7917.24 10857.44,7924.51 "/>
     <polygon id="170" class="fil90" points="9869.63,-53.76 9926.14,-61.03 10951.62,7912.4 10895.11,7919.66 "/>
     <polygon id="171" class="fil90" points="9907.3,-58.61 9963.81,-65.87 10989.29,7907.55 10932.78,7914.82 "/>
     <polygon id="172" class="fil91" points="9944.97,-63.45 10001.48,-70.72 11026.97,7902.7 10970.46,7909.97 "/>
     <polygon id="173" class="fil91" points="9982.65,-68.3 10039.16,-75.57 11064.64,7897.86 11008.13,7905.13 "/>
     <polygon id="174" class="fil92" points="10020.32,-73.14 10076.83,-80.41 11102.31,7893.01 11045.8,7900.28 "/>
     <polygon id="175" class="fil92" points="10057.99,-77.99 10114.5,-85.26 11139.99,7888.17 11083.48,7895.44 "/>
     <polygon id="176" class="fil92" points="10095.67,-82.83 10152.18,-90.1 11177.66,7883.32 11121.15,7890.59 "/>
     <polygon id="177" class="fil93" points="10133.34,-87.68 10189.85,-94.95 11215.33,7878.48 11158.82,7885.75 "/>
     <polygon id="178" class="fil93" points="10171.01,-92.52 10227.52,-99.79 11253.01,7873.63 11196.5,7880.9 "/>
     <polygon id="179" class="fil94" points="10208.69,-97.37 10265.2,-104.64 11290.68,7868.79 11234.17,7876.06 "/>
     <polygon id="180" class="fil94" points="10246.36,-102.21 10302.87,-109.48 11328.35,7863.94 11271.84,7871.21 "/>
     <polygon id="181" class="fil95" points="10284.03,-107.06 10340.54,-114.33 11366.03,7859.1 11309.52,7866.37 "/>
     <polygon id="182" class="fil96" points="10321.71,-111.9 10378.22,-119.17 11403.7,7854.25 11347.19,7861.52 "/>
     <polygon id="183" class="fil96" points="10359.38,-116.75 10415.89,-124.02 11441.37,7849.41 11384.86,7856.67 "/>
     <polygon id="184" class="fil96" points="10397.05,-121.6 10453.56,-128.86 11479.05,7844.56 11422.54,7851.83 "/>
     <polygon id="185" class="fil97" points="10434.73,-126.44 10491.24,-133.71 11516.72,7839.72 11460.21,7846.98 "/>
     <polygon id="186" class="fil97" points="10472.4,-131.29 10528.91,-138.55 11554.39,7834.87 11497.88,7842.14 "/>
     <polygon id="187" class="fil98" points="10510.07,-136.13 10566.58,-143.4 11592.07,7830.03 11535.56,7837.29 "/>
     <polygon id="188" class="fil98" points="10547.75,-140.98 10604.26,-148.24 11629.74,7825.18 11573.23,7832.45 "/>
     <polygon id="189" class="fil98" points="10585.42,-145.82 10641.93,-153.09 11667.41,7820.34 11610.9,7827.6 "/>
     <polygon id="190" class="fil99" points="10623.09,-150.67 10679.6,-157.93 11705.09,7815.49 11648.58,7822.76 "/>
     <polygon id="191" class="fil99" points="10660.77,-155.51 10717.28,-162.78 11742.76,7810.64 11686.25,7817.91 "/>
     <polygon id="192" class="fil100" points="10698.44,-160.36 10754.95,-167.63 11780.43,7805.8 11723.92,7813.07 "/>
     <polygon id="193" class="fil100" points="10736.11,-165.2 10792.62,-172.47 11818.11,7800.95 11761.6,7808.22 "/>
     <polygon id="194" class="fil101" points="10773.79,-170.05 10830.3,-177.32 11855.78,7796.11 11799.27,7803.38 "/>
     <polygon id="195" class="fil102" points="10811.46,-174.89 10867.97,-182.16 11893.45,7791.26 11836.94,7798.53 "/>
     <polygon id="196" class="fil102" points="10849.13,-179.74 10905.64,-187.01 11931.13,7786.42 11874.62,7793.69 "/>
     <polygon id="197" class="fil103" points="10886.81,-184.58 10943.32,-191.85 11968.8,7781.57 11912.29,7788.84 "/>
     <polygon id="198" class="fil104" points="10924.48,-189.43 10980.99,-196.7 12006.47,7776.73 11949.96,7784 "/>
     <polygon id="199" class="fil104" points="10962.15,-194.27 11018.66,-201.54 12044.15,7771.88 11987.64,7779.15 "/>
     <polygon id="200" class="fil105" points="10999.83,-199.12 11056.34,-206.39 12081.82,7767.04 12025.31,7774.31 "/>
     <polygon id="201" class="fil105" points="11037.5,-203.96 11094.01,-211.23 12119.49,7762.19 12062.98,7769.46 "/>
     <polygon id="202" class="fil106" points="11075.17,-208.81 11131.68,-216.08 12157.17,7757.35 12100.66,7764.61 "/>
     <polygon id="203" class="fil106" points="11112.85,-213.66 11169.36,-220.92 12194.84,7752.5 12138.33,7759.77 "/>
     <polygon id="204" class="fil106" points="11150.52,-218.5 11207.03,-225.77 12232.51,7747.66 12176,7754.92 "/>
     <polygon id="205" class="fil107" points="11188.19,-223.35 11244.7,-230.61 12270.19,7742.81 12213.68,7750.08 "/>
     <polygon id="206" class="fil107" points="11225.87,-228.19 11282.38,-235.46 12307.86,7737.97 12251.35,7745.23 "/>
     <polygon id="207" class="fil108" points="11263.54,-233.04 11320.05,-240.3 12345.53,7733.12 12289.02,7740.39 "/>
     <polygon id="208" class="fil108" points="11301.21,-237.88 11357.72,-245.15 12383.21,7728.28 12326.7,7735.54 "/>
     <polygon id="209" class="fil108" points="11338.89,-242.73 11395.4,-249.99 12420.88,7723.43 12364.37,7730.7 "/>
     <polygon id="210" class="fil109" points="11376.56,-247.57 11433.07,-254.84 12458.55,7718.58 12402.04,7725.85 "/>
     <polygon id="211" class="fil110" points="11414.23,-252.42 11470.74,-259.69 12496.23,7713.74 12439.72,7721.01 "/>
     <polygon id="212" class="fil111" points="11451.91,-257.26 11508.42,-264.53 12533.9,7708.89 12477.39,7716.16 "/>
     <polygon id="213" class="fil111" points="11489.58,-262.11 11546.09,-269.38 12571.57,7704.05 12515.06,7711.32 "/>
     <polygon id="214" class="fil111" points="11527.25,-266.95 11583.76,-274.22 12609.25,7699.2 12552.74,7706.47 "/>
     <polygon id="215" class="fil112" points="11564.93,-271.8 11621.44,-279.07 12646.92,7694.36 12590.41,7701.63 "/>
     <polygon id="216" class="fil112" points="11602.6,-276.64 11659.11,-283.91 12684.59,7689.51 12628.08,7696.78 "/>
     <polygon id="217" class="fil113" points="11640.27,-281.49 11696.78,-288.76 12722.27,7684.67 12665.76,7691.94 "/>
     <polygon id="218" class="fil113" points="11677.95,-286.33 11734.46,-293.6 12759.94,7679.82 12703.43,7687.09 "/>
     <polygon id="219" class="fil113" points="11715.62,-291.18 11772.13,-298.45 12797.61,7674.98 12741.1,7682.24 "/>
     <polygon id="220" class="fil114" points="11753.29,-296.02 11809.8,-303.29 12835.29,7670.13 12778.78,7677.4 "/>
     <polygon id="221" class="fil114" points="11790.97,-300.87 11847.48,-308.14 12872.96,7665.29 12816.45,7672.55 "/>
     <polygon id="222" class="fil115" points="11828.64,-305.72 11885.15,-312.98 12910.63,7660.44 12854.12,7667.71 "/>
     <polygon id="223" class="fil115" points="11866.31,-310.56 11922.82,-317.83 12948.31,7655.6 12891.8,7662.86 "/>
     <polygon id="224" class="fil116" points="11903.99,-315.41 11960.5,-322.67 12985.98,7650.75 12929.47,7658.02 "/>
     <polygon id="225" class="fil117" points="11941.66,-320.25 11998.17,-327.52 13023.65,7645.91 12967.14,7653.17 "/>
     <polygon id="226" class="fil117" points="11979.33,-325.1 12035.84,-332.36 13061.33,7641.06 13004.82,7648.33 "/>
     <polygon id="227" class="fil118" points="12017.01,-329.94 12073.52,-337.21 13099,7636.21 13042.49,7643.48 "/>
     <polygon id="228" class="fil119" points="12054.68,-334.79 12111.19,-342.06 13136.67,7631.37 13080.16,7638.64 "/>
     <polygon id="229" class="fil119" points="12092.35,-339.63 12148.86,-346.9 13174.35,7626.52 13117.84,7633.79 "/>
     <polygon id="230" class="fil120" points="12130.03,-344.48 12186.54,-351.75 13212.02,7621.68 13155.51,7628.95 "/>
     <polygon id="231" class="fil120" points="12167.7,-349.32 12224.21,-356.59 13249.69,7616.83 13193.18,7624.1 "/>
     <polygon id="232" class="fil120" points="12205.37,-354.17 12261.88,-361.44 13287.37,7611.99 13230.86,7619.26 "/>
     <polygon id="233" class="fil121" points="12243.05,-359.01 12299.56,-366.28 13325.04,7607.14 13268.53,7614.41 "/>
     <polygon id="234" class="fil121" points="12280.72,-363.86 12337.23,-371.13 13362.71,7602.3 13306.2,7609.57 "/>
     <polygon id="235" class="fil122" points="12318.39,-368.7 12374.9,-375.97 13400.39,7597.45 13343.88,7604.72 "/>
     <polygon id="236" class="fil122" points="12356.07,-373.55 12412.58,-380.82 13438.06,7592.61 13381.55,7599.88 "/>
     <polygon id="237" class="fil123" points="12393.74,-378.39 12450.25,-385.66 13475.73,7587.76 13419.22,7595.03 "/>
     <polygon id="238" class="fil124" points="12431.41,-383.24 12487.92,-390.51 13513.41,7582.92 13456.9,7590.18 "/>
     <polygon id="239" class="fil124" points="12469.09,-388.09 12525.6,-395.35 13551.08,7578.07 13494.57,7585.34 "/>
     <polygon id="240" class="fil125" points="12506.76,-392.93 12563.27,-400.2 13588.75,7573.23 13532.24,7580.49 "/>
     <polygon id="241" class="fil126" points="12544.43,-397.78 12600.94,-405.04 13626.43,7568.38 13569.92,7575.65 "/>
     <polygon id="242" class="fil126" points="12582.11,-402.62 12638.62,-409.89 13664.1,7563.54 13607.59,7570.8 "/>
     <polygon id="243" class="fil127" points="12619.78,-407.47 12676.29,-414.73 13701.77,7558.69 13645.26,7565.96 "/>
     <polygon id="244" class="fil127" points="12657.45,-412.31 12713.96,-419.58 13739.45,7553.85 13682.94,7561.11 "/>
     <polygon id="245" class="fil128" points="12695.13,-417.16 12751.64,-424.42 13777.12,7549 13720.61,7556.27 "/>
     <polygon id="246" class="fil129" points="12732.8,-422 12789.31,-429.27 13814.79,7544.15 13758.28,7551.42 "/>
     <polygon id="247" class="fil129" points="12770.47,-426.85 12826.98,-434.12 13852.47,7539.31 13795.96,7546.58 "/>
     <polygon id="248" class="fil130" points="12808.15,-431.69 12864.66,-438.96 13890.14,7534.46 13833.63,7541.73 "/>
     <polygon id="249" class="fil130" points="12845.82,-436.54 12902.33,-443.81 13927.81,7529.62 13871.3,7536.89 "/>
     <polygon id="250" class="fil131" points="12883.49,-441.38 12940,-448.65 13965.49,7524.77 13908.98,7532.04 "/>
     <polygon id="251" class="fil131" points="12921.17,-446.23 12977.68,-453.5 14003.16,7519.93 13946.65,7527.2 "/>
     <polygon id="252" class="fil131" points="12958.84,-451.07 13015.35,-458.34 14040.83,7515.08 13984.32,7522.35 "/>
     <polygon id="253" class="fil132" points="12996.51,-455.92 13053.02,-463.19 14078.51,7510.24 14022,7517.51 "/>
     <polygon id="254" class="fil133" points="13034.19,-460.76 13090.7,-468.03 14116.18,7505.39 14059.67,7512.66 "/>
     <polygon id="255" class="fil134" points="13071.86,-465.61 13128.37,-472.88 14153.85,7500.55 14097.34,7507.82 "/>
     <polygon id="256" class="fil134" points="13109.53,-470.45 13166.04,-477.72 14191.53,7495.7 14135.02,7502.97 "/>
     <polygon id="257" class="fil134" points="13147.21,-475.3 13203.72,-482.57 14229.2,7490.86 14172.69,7498.12 "/>
     <polygon id="258" class="fil133" points="13184.88,-480.15 13147.21,-475.3 14172.69,7498.12 14210.36,7493.28 "/>
    </g>
   </g>
   <path class="fil135" d="M11587.41 1710.17l525.59 0c175.47,0 318.93,143.58 318.93,318.99l0 1313.64c0,175.47 -143.46,318.99 -318.93,318.99l-525.59 0c-175.41,0 -318.99,-143.52 -318.99,-318.99l0 -1313.64c0,-175.41 143.58,-318.99 318.99,-318.99z"/>
   <path class="fil135" d="M9335.45 1710.17l525.59 0c175.47,0 318.93,143.58 318.93,318.99l0 1313.64c0,175.47 -143.46,318.99 -318.93,318.99l-525.59 0c-175.41,0 -318.93,-143.52 -318.93,-318.99l0 -1313.64c0,-175.41 143.52,-318.99 318.93,-318.99z"/>
   <path class="fil135" d="M7483.75 7367.05c-618.04,-318.16 -1130.69,-848.97 -1416.24,-1542.06 -274.39,-666.02 -294.33,-1373.36 -105.12,-2014.27 -108.89,530.6 -90.05,1102.56 80.96,1666.91 250.01,825.13 779.42,1483.3 1440.4,1889.42z"/>
   <g id="_2230616032">
    <path class="fil0" d="M11081.22 5725.61c31.83,-6.9 62.98,-14.91 93.41,-24.06 72.02,-21.62 112.86,-97.54 91.23,-169.55 -21.64,-72.03 -97.59,-112.87 -169.57,-91.22 -328.62,98.69 -790.71,29.22 -1236.1,-185.92 -414.91,-200.42 -730.97,-489.56 -805.18,-736.63 -21.63,-72.01 -97.56,-113.02 -169.55,-91.21 -72.03,21.62 -112.86,97.53 -91.23,169.54 96.61,321.66 459.69,667.86 947.53,903.5 473.43,228.66 955.09,308.79 1339.46,225.55z"/>
   </g>
  </g>
 </g>
</svg>
